<svg width="333" height="33" viewBox="0 0 333 33" fill="none" xmlns="http://www.w3.org/2000/svg">
<path fill-rule="evenodd" clip-rule="evenodd" d="M300.446 32.5077V27.5412C300.446 27.5412 310.526 27.5412 312.333 27.4457C314.14 27.3502 316.43 26.4608 318.324 25.249C320.599 23.794 321.901 21.6332 322.688 20.3274L322.688 20.3273C322.759 20.2095 322.826 20.0987 322.889 19.996C324.171 17.9045 329.837 6.5188 332.651 0.600643C332.641 0.615705 332.631 0.631134 332.62 0.646929C331.476 2.97264 329.538 6.73529 328.621 8.45177C327.642 10.2841 323.365 17.2125 321.64 19.5666C321.53 19.7007 321.42 19.8381 321.307 19.9807C320.775 20.6502 320.152 21.4342 318.911 22.5251C317.406 23.8485 313.836 24.8778 312.606 25.0105C311.377 25.1432 301.077 25.1008 301.077 25.1008V20.4244C301.553 20.4244 302.087 20.4253 302.669 20.4262C304.005 20.4282 305.592 20.4307 307.29 20.4244C309.689 20.4156 312.31 20.3941 314.633 19.7691C318.438 18.7452 321.155 16.0483 322.661 14.5542C322.88 14.3367 323.073 14.1447 323.241 13.9871C324.445 12.8529 326.318 10.8362 328.04 8.45177C329.408 6.55772 330.698 4.14806 331.719 2.24265L331.719 2.24248C331.871 1.95813 332.018 1.68501 332.157 1.42651C332.082 1.56055 332.001 1.70413 331.916 1.85671C330.919 3.63443 329.239 6.63361 326.232 9.98282C322.27 14.3945 315.931 17.1577 313.075 17.5796C310.218 18.0015 301.645 17.9445 301.645 17.9445C302.407 15.6302 304.979 13.8484 306.154 13.4567C306.186 13.4478 306.22 13.4383 306.256 13.4283C306.948 13.2345 308.337 12.8455 315.581 12.9143C323.042 12.9851 329.578 4.7098 332.498 0.801894C332.619 0.583575 332.733 0.380854 332.841 0.196585C332.775 0.331602 332.706 0.473428 332.633 0.621159C332.641 0.611003 332.648 0.600883 332.656 0.590794C332.73 0.433257 332.803 0.279608 332.874 0.130127L327.263 15.2206C326.154 18.3087 323.805 24.3832 321.463 27.3502C319.119 30.3182 314.023 32.0803 312.295 32.2461C310.567 32.412 300.446 32.5077 300.446 32.5077Z" fill="#D9BF77"/>
<path d="M20.4823 13.2668C20.2637 13.6354 19.2363 13.8074 19.2363 15.1343V31.0076C19.2363 32.3345 20.2637 32.4819 20.4823 32.8751H14.8862C15.1048 32.4819 16.1322 32.3345 16.1322 31.0076V14.1514L9.57423 32.8751H9.26819L2.42607 15.38V31.0076C2.42607 32.3345 3.43162 32.4819 3.67208 32.8751H0.874023C1.11448 32.4819 2.12003 32.3345 2.12003 31.0076V15.1343C2.12003 13.8074 1.11448 13.6354 0.874023 13.2668H4.69949L10.8202 28.4276L16.1322 13.2668H20.4823Z" fill="#21254A"/>
<path d="M65.4001 32.5311C68.4904 32.5311 69.7308 29.8528 70.5927 27.7396L69.5836 32.8751H58.6099C58.8201 32.4819 59.8081 32.3345 59.8081 31.0076V15.1343C59.8081 13.8074 58.8201 13.6354 58.6099 13.2668H69.1842L69.983 17.6898C68.8478 15.4292 68.049 13.6109 65.0007 13.6109H62.7933V22.4812H65.4001C66.5353 22.4812 66.6615 20.6629 66.9978 20.2698V25.0367C66.6615 24.6436 66.5353 22.8253 65.4001 22.8253H62.7933V32.5311H65.4001Z" fill="#21254A"/>
<path d="M125.06 13.2668C124.834 13.6354 123.769 13.8074 123.769 15.1343V31.0076C123.769 32.3345 124.834 32.4819 125.06 32.8751H119.259C119.485 32.4819 120.55 32.3345 120.55 31.0076V23.415H113.23V31.0076C113.23 32.3345 114.295 32.4819 114.522 32.8751H108.72C108.97 32.4819 110.012 32.3345 110.012 31.0076V15.1343C110.012 13.8074 108.97 13.6354 108.72 13.2668H114.522C114.295 13.6354 113.23 13.8074 113.23 15.1343V23.071H120.55V15.1343C120.55 13.8074 119.485 13.6354 119.259 13.2668H125.06Z" fill="#21254A"/>
<path d="M165.877 23.6361C168.74 23.6361 169.811 21.7687 169.811 18.8201C169.811 15.6012 168.74 13.6109 165.877 13.6109H164.551V23.6361H165.877ZM159.918 32.8751C160.175 32.4819 161.245 32.3345 161.245 31.0076V15.1343C161.245 13.8074 160.175 13.6354 159.918 13.2668H165.877C170.952 13.2668 173.442 15.6012 173.442 18.8201C173.442 21.7687 171.208 23.8573 167.809 23.8573C169.811 23.8573 171.231 25.307 172.209 27.2727C172.884 28.6733 173.465 29.8528 174.047 31.0076C174.769 32.4819 176.026 32.4819 176.259 32.8751H171.394L168.973 27.7396C168.368 26.4373 167.344 23.9801 165.435 23.9801H164.551V31.0076C164.551 32.3345 165.645 32.4819 165.877 32.8751H159.918Z" fill="#21254A"/>
<path d="M223.316 26.5602L219.953 18.1075L217.106 26.5602H223.316ZM213.296 32.8751C213.555 32.4819 214.825 32.3099 215.272 31.0076L221.246 13.2668H221.576L228.656 31.0076C229.149 32.2608 230.49 32.4819 230.725 32.8751H224.469C224.727 32.4819 225.574 32.2608 225.08 31.0076L223.457 26.9042H216.989L215.601 31.0076C215.154 32.3099 216.071 32.4819 216.33 32.8751H213.296Z" fill="#21254A"/>
<path d="M275.687 32.5311C278.773 32.5311 280.003 29.8528 280.837 27.7396L279.857 32.8751H267.764L276.917 13.6109H273.31C270.287 13.6109 269.495 15.4292 268.369 17.6898L269.161 13.2668H280.44L271.309 32.5311H275.687Z" fill="#21254A"/>
</svg>
