<svg width="301" height="38" viewBox="0 0 301 38" fill="none" xmlns="http://www.w3.org/2000/svg">
<path fill-rule="evenodd" clip-rule="evenodd" d="M264.396 19.9701C264.396 19.9701 274.506 20.193 277.861 19.6972C281.217 19.2013 288.455 15.7495 293.162 10.6124C295.124 8.47103 296.324 6.69251 297.284 5.26994C297.355 5.16425 297.425 5.06051 297.494 4.95874C298.173 3.95678 298.815 2.9933 299.347 2.19463C299.799 1.51667 300.171 0.957463 300.42 0.594274C299.612 1.98104 298.666 3.53326 297.533 5.3488C297.371 5.60814 297.211 5.8686 297.05 6.13174L297.05 6.13181C296.551 6.94713 296.035 7.78822 295.386 8.70198C294.528 9.91069 291.18 14.1533 289.766 15.4863C289.644 15.6011 289.51 15.7293 289.364 15.8688C287.658 17.5013 284.325 20.6902 279.696 22.2707C277.021 23.1836 274.082 23.2351 271.265 23.2455C269.261 23.2529 267.274 23.2499 265.632 23.2475H265.631C264.926 23.2464 264.284 23.2455 263.732 23.2455V28.6262C263.732 28.6262 275.48 28.6933 276.924 28.5373C278.368 28.3814 281.986 27.5692 283.755 26.0138C285.523 24.4584 287.467 22.2713 288.204 21.3739C290.231 18.6071 294.978 11.1226 296.128 8.96896C297.277 6.81561 299.131 3.24771 300.421 0.593142C300.421 0.593117 300.421 0.593093 300.421 0.593068C299.975 1.53515 299.475 2.60279 298.94 3.746L298.94 3.74624C297.245 7.36592 295.196 11.7432 293.396 15.2914C291.677 18.6794 290.044 21.4758 289.394 22.5375C289.263 22.751 289.12 22.9982 288.962 23.2709L288.962 23.2709C288.041 24.8622 286.617 27.3242 284.184 29.0551C282.037 30.7317 279.116 31.6769 276.993 31.7891C274.871 31.9014 263.732 31.8624 263.732 31.8624V37.2041C263.732 37.2041 270.94 37.3484 275.129 37.2431C276.498 37.2087 278.29 36.8532 278.915 36.6582C279.539 36.4633 284.965 34.6697 287.718 31.1813C290.269 27.9486 292.587 21.4471 293.95 17.6237L293.95 17.6237L293.951 17.6226C294.058 17.3218 294.159 17.0377 294.254 16.773L300.421 0.592729C300.421 0.592418 300.421 0.592107 300.422 0.591797C300.421 0.592027 300.421 0.592257 300.421 0.592487L300.421 0.591946C300.421 0.592301 300.421 0.592656 300.421 0.593011C300.097 1.00204 299.766 1.4322 299.419 1.88372C297.878 3.88537 296.013 6.30698 293.084 9.16972C289.651 12.143 284.133 14.5138 279.774 14.4724C271.347 14.3924 270.58 14.6106 269.865 14.8138C269.821 14.8264 269.777 14.8389 269.731 14.8513C268.352 15.3117 265.29 17.25 264.396 19.9701ZM300.421 0.592673C300.421 0.592431 300.421 0.592189 300.421 0.591946C300.421 0.592179 300.421 0.592411 300.421 0.592644C300.421 0.592654 300.421 0.592664 300.421 0.592673Z" fill="white"/>
<path d="M22.944 14.4673C22.6929 14.8906 21.5128 15.0882 21.5128 16.6123V34.8447C21.5128 36.3687 22.6929 36.5381 22.944 36.9896H16.5162C16.7673 36.5381 17.9474 36.3687 17.9474 34.8447V15.4833L10.4148 36.9896H10.0633L2.20434 16.8945V34.8447C2.20434 36.3687 3.35933 36.5381 3.63552 36.9896H0.421631C0.697825 36.5381 1.85282 36.3687 1.85282 34.8447V16.6123C1.85282 15.0882 0.697825 14.8906 0.421631 14.4673H4.81563L11.846 31.8812L17.9474 14.4673H22.944Z" fill="white"/>
<path d="M58.2608 37.0078C61.8104 37.0078 63.2351 33.9315 64.2251 31.5043L63.066 37.403H50.4614C50.7029 36.9514 51.8378 36.7821 51.8378 35.258V17.0256C51.8378 15.5015 50.7029 15.304 50.4614 14.8806H62.6073L63.5248 19.9608C62.2209 17.3643 61.3033 15.2757 57.802 15.2757H55.2666V25.4644H58.2608C59.5648 25.4644 59.7096 23.3759 60.096 22.9243V28.3997C59.7096 27.9481 59.5648 25.8596 58.2608 25.8596H55.2666V37.0078H58.2608Z" fill="white"/>
<path d="M110.511 14.8806C110.25 15.304 109.027 15.5015 109.027 17.0256V35.258C109.027 36.7821 110.25 36.9514 110.511 37.403H103.847C104.107 36.9514 105.33 36.7821 105.33 35.258V26.5369H96.9222V35.258C96.9222 36.7821 98.1457 36.9514 98.406 37.403H91.7419C92.0283 36.9514 93.2257 36.7821 93.2257 35.258V17.0256C93.2257 15.5015 92.0283 15.304 91.7419 14.8806H98.406C98.1457 15.304 96.9222 15.5015 96.9222 17.0256V26.1418H105.33V17.0256C105.33 15.5015 104.107 15.304 103.847 14.8806H110.511Z" fill="white"/>
<path d="M144.872 26.7909C148.161 26.7909 149.391 24.646 149.391 21.2591C149.391 17.5618 148.161 15.2757 144.872 15.2757H143.348V26.7909H144.872ZM138.028 37.403C138.322 36.9514 139.552 36.7821 139.552 35.258V17.0256C139.552 15.5015 138.322 15.304 138.028 14.8806H144.872C150.701 14.8806 153.561 17.5618 153.561 21.2591C153.561 24.646 150.995 27.0449 147.091 27.0449C149.391 27.0449 151.022 28.7101 152.144 30.968C152.92 32.5768 153.588 33.9315 154.257 35.258C155.085 36.9514 156.529 36.9514 156.796 37.403H151.209L148.428 31.5043C147.733 30.0084 146.557 27.1861 144.364 27.1861H143.348V35.258C143.348 36.7821 144.605 36.9514 144.872 37.403H138.028Z" fill="white"/>
<path d="M195.823 30.1495L191.959 20.4406L188.69 30.1495H195.823ZM184.313 37.403C184.611 36.9514 186.07 36.7538 186.583 35.258L193.445 14.8806H193.824L201.956 35.258C202.523 36.6974 204.063 36.9514 204.333 37.403H197.147C197.444 36.9514 198.417 36.6974 197.849 35.258L195.985 30.5447H188.555L186.961 35.258C186.448 36.7538 187.502 36.9514 187.799 37.403H184.313Z" fill="white"/>
<path d="M240.95 37.0078C244.494 37.0078 245.907 33.9315 246.865 31.5043L245.74 37.403H231.85L242.363 15.2757H238.22C234.748 15.2757 233.838 17.3643 232.545 19.9608L233.455 14.8806H246.41L235.921 37.0078H240.95Z" fill="white"/>
</svg>
