<svg width="47" height="42" viewBox="0 0 47 42" fill="none" xmlns="http://www.w3.org/2000/svg">
<path opacity="0.7" d="M9.17324 27.754C10.8552 27.0976 11.9717 26.1802 12.5992 24.9769C13.3538 23.5299 13.3817 21.7029 13.0379 19.7083C12.6946 17.7168 11.9893 15.6017 11.3205 13.5973M9.17324 27.754L8.86337 14.8562M9.17324 27.754C8.38072 25.4105 7.73997 21.0039 9.52427 16.3352L9.52431 16.3351C9.74953 15.745 9.4543 15.0824 8.8634 14.8562L8.77373 15.0896L8.86303 14.856C8.86315 14.8561 8.86326 14.8561 8.86337 14.8562M9.17324 27.754L8.86337 14.8562M11.3205 13.5973L11.5576 13.5182L11.3205 13.5973C11.3205 13.5973 11.3205 13.5973 11.3205 13.5973ZM11.3205 13.5973C10.8486 12.1834 10.3898 10.8083 10.0836 9.54683C8.84109 10.467 7.16487 11.9551 5.75929 13.882C4.23608 15.9702 3.04104 18.5591 3.04104 21.4913C3.04104 23.4676 3.65892 24.8428 4.47312 25.8036C5.14376 26.595 5.95621 27.1151 6.68983 27.4542C5.93113 24.5699 5.60379 20.1769 7.38377 15.5174L7.38391 15.517C7.61035 14.9269 8.27206 14.629 8.86337 14.8562M17.2335 2.63965L17.2334 2.63972C16.6608 2.90692 16.4117 3.58799 16.6791 4.16172L16.6791 4.16184C16.9463 4.73442 17.6268 4.98348 18.201 4.71621L18.2011 4.71618C20.587 3.60504 23.1349 3.04104 25.7761 3.04104C26.0526 3.04104 26.3279 3.04915 26.6027 3.06243C26.5716 4.07443 26.3509 5.31451 25.6659 6.57045L25.6658 6.57054C25.2133 7.40115 24.6409 7.76621 23.9844 8.18224C23.9844 8.18225 23.9844 8.18226 23.9844 8.18227L23.9734 8.18921C23.2755 8.63128 22.4292 9.16729 21.9026 10.2896L21.9026 10.2898C21.0216 12.1706 21.3267 14.911 22.6175 17.2773C23.6539 19.1772 25.1181 20.4341 26.6682 20.6424L26.6683 20.6424C26.826 20.6636 26.9816 20.6739 27.1355 20.6739C28.2398 20.6739 29.2108 20.1461 30.0725 19.424C30.9292 18.7061 31.7054 17.7722 32.4195 16.913L32.4293 16.9013L32.4293 16.9013C33.0325 16.1752 33.6302 15.4568 34.1949 14.9465C34.4768 14.6918 34.7396 14.4992 34.98 14.3837C35.2196 14.2686 35.4178 14.2388 35.585 14.2784C35.781 14.3251 35.9656 14.4703 36.1741 14.7753C36.3835 15.0817 36.5915 15.5104 36.8495 16.0685C36.8495 16.0685 36.8495 16.0685 36.8495 16.0685L36.8619 16.0953C37.448 17.3638 38.224 19.0433 40.0638 19.755C41.15 20.1752 42.3693 20.16 43.6874 19.7497C43.7175 20.1639 43.7351 20.5801 43.7351 21C43.7351 22.6176 43.5163 24.1836 43.1128 25.6756C41.329 24.3727 39.3414 23.4484 37.521 23.0144C35.6129 22.5596 33.8307 22.6312 32.6764 23.4485L32.6764 23.4485C31.3778 24.3683 31.052 25.6728 30.7841 26.7451L30.7784 26.7681L30.7783 26.7682C30.5159 27.822 30.3037 28.651 29.4285 29.3678L29.4285 29.3678C28.1797 30.3905 26.756 30.3789 25.1311 30.353L25.1307 30.353L25.0868 30.3524C23.4812 30.3294 21.7097 30.304 20.2476 31.5794L20.4119 31.7678L20.2476 31.5794C19.6102 32.1354 19.1285 33.1096 18.8518 34.2251C18.6059 35.216 18.5147 36.3453 18.6315 37.4502C15.0993 35.9089 12.0895 33.2572 10.1467 29.8348C12.2407 28.983 13.7559 27.7136 14.6312 26.0363L14.6312 26.0362C15.6347 24.1119 15.7027 21.8924 15.3496 19.6314C14.9973 17.3754 14.2199 15.0458 13.4985 12.8841L13.4945 12.8719C12.8182 10.845 12.1936 8.9688 12.0372 7.5253L12.0372 7.52518C11.996 7.1467 11.7694 6.81303 11.4326 6.63567C11.0949 6.45694 10.6916 6.45934 10.3565 6.63939C9.09883 7.31388 6.70451 9.04381 4.62213 11.5881C2.53868 14.1337 0.75 17.5163 0.75 21.4913C0.75 24.8043 2.10435 26.9072 3.68103 28.2227C5.17969 29.4731 6.86746 30.0034 7.7503 30.21C11.194 36.9322 18.1976 41.25 25.7761 41.25C36.9422 41.25 46.0261 32.1661 46.0261 21C46.0261 9.83387 36.9422 0.75 25.7761 0.75C22.7988 0.75 19.9246 1.386 17.2335 2.63965ZM6.98329 27.5823C7.01183 27.6857 7.04092 27.7869 7.07045 27.886C6.97435 27.8491 6.87571 27.8092 6.77512 27.7659L6.98329 27.5823ZM40.8909 17.6182L40.8908 17.6182C40.4163 17.4347 40.06 17.1014 39.7538 16.6628C39.4442 16.2195 39.1963 15.6846 38.9296 15.1077L38.9296 15.1076L38.9091 15.0632C38.3673 13.891 37.6897 12.4249 36.1166 12.05C34.9914 11.7813 34.0022 12.1854 33.1195 12.8644C32.2468 13.5358 31.444 14.5023 30.6775 15.425L30.6674 15.4373L30.6674 15.4373L30.6499 15.4583C30.0001 16.2406 29.3568 17.015 28.722 17.5761C28.0723 18.1504 27.4936 18.4445 26.9755 18.3721L26.9741 18.3719C26.6224 18.3248 26.2149 18.1094 25.7981 17.7272C25.3845 17.3479 24.9784 16.8193 24.6296 16.18C24.1499 15.3006 23.8472 14.3611 23.736 13.4923C23.6244 12.6203 23.7079 11.8387 23.978 11.262C24.2159 10.7549 24.5917 10.5096 25.2108 10.1175L25.2108 10.1174L25.2163 10.114C25.9656 9.63909 26.9379 9.02283 27.6774 7.66782L27.6774 7.66778C28.5265 6.11123 28.8265 4.57855 28.8872 3.31271C36.1494 4.58641 41.9208 10.2389 43.3756 17.4384C42.3646 17.8239 41.5379 17.8688 40.8909 17.6182ZM25.0963 32.644L25.0967 32.644L25.1269 32.6444C26.8893 32.67 28.9761 32.7002 30.8808 31.1397C32.3495 29.9368 32.7169 28.4647 32.9986 27.3362L33.002 27.3226L33.002 27.3226C33.2701 26.247 33.4372 25.7173 34.0013 25.3174C34.2496 25.1414 34.6783 25.0299 35.2717 25.027C35.8573 25.0241 36.5719 25.1272 37.3614 25.3465C38.8954 25.7727 40.6876 26.6305 42.3288 27.9585C39.6029 34.4156 33.211 38.959 25.7761 38.959C24.1895 38.959 22.6322 38.7392 21.1349 38.3339C20.8289 37.3773 20.8171 36.277 20.9693 35.3271C21.0484 34.8332 21.1708 34.3875 21.314 34.0313C21.4602 33.668 21.6179 33.4239 21.7529 33.3061C22.1433 32.9658 22.6168 32.7924 23.1786 32.7084C23.7458 32.6237 24.3832 32.6326 25.0963 32.644Z" fill="#009032" stroke="#009032" stroke-width="0.5"/>
</svg>
