<svg width="42" height="42" viewBox="0 0 42 42" fill="none" xmlns="http://www.w3.org/2000/svg">
<path d="M41.6707 33.555L36.1944 26.835L35.9994 15C36.0058 14.9201 36.0058 14.8399 35.9994 14.76C34.274 5.37 28.8127 0 20.9959 0C12.7439 0 6.11239 6 4.49201 14.73C4.48389 14.8198 4.48389 14.9102 4.49201 15L4.29696 27L0.201009 33.72C0.0693259 33.948 0 34.2067 0 34.47C0 34.7333 0.0693259 34.992 0.201009 35.22C0.328089 35.4523 0.514406 35.6468 0.741032 35.7838C0.967658 35.9208 1.22652 35.9954 1.49131 36H14.9945C14.9945 37.5913 15.6267 39.1174 16.7522 40.2426C17.8777 41.3679 19.4042 42 20.9959 42C22.5875 42 24.114 41.3679 25.2395 40.2426C26.365 39.1174 26.9973 37.5913 26.9973 36H40.5004C40.7832 35.9992 41.06 35.9185 41.2989 35.7672C41.5378 35.616 41.7291 35.4003 41.8507 35.145C41.9739 34.89 42.0223 34.6054 41.9905 34.324C41.9586 34.0426 41.8477 33.776 41.6707 33.555ZM20.9959 39C20.2 39 19.4368 38.6839 18.874 38.1213C18.3113 37.5587 17.9952 36.7956 17.9952 36H23.9966C23.9966 36.7956 23.6804 37.5587 23.1177 38.1213C22.5549 38.6839 21.7917 39 20.9959 39ZM4.14693 33L7.14763 28.14C7.28248 27.9129 7.35493 27.6541 7.35768 27.39L7.49271 15.15C8.85803 7.875 14.2743 3 20.9959 3C29.4428 3 32.1435 10.5 32.9987 15.15L33.2087 27.39C33.2107 27.7283 33.327 28.0561 33.5388 28.32L37.3497 33H4.14693Z" fill="black"/>
</svg>
