<svg width="27" height="30" viewBox="0 0 27 30" fill="none" xmlns="http://www.w3.org/2000/svg">
<path d="M4.15513 0.36853H16.4239C17.3279 0.36853 18.1484 0.737054 18.7425 1.33202C19.3365 1.9261 19.7059 2.74751 19.7059 3.65061V6.07843H23.4453C24.3493 6.07843 25.1699 6.44695 25.7639 7.04192C26.358 7.63599 26.7274 8.4574 26.7274 9.36051V25.9503C26.7274 26.8534 26.3589 27.6748 25.7639 28.2689C25.1699 28.863 24.3484 29.2324 23.4453 29.2324H11.1766C10.2726 29.2324 9.4521 28.8638 8.85802 28.2689C8.26394 27.6739 7.89453 26.8534 7.89453 25.9503V23.5225H4.15513C3.25113 23.5225 2.43061 23.1531 1.83654 22.559C1.24246 21.9649 0.873047 21.1435 0.873047 20.2404V3.65061C0.873047 2.74662 1.24157 1.9261 1.83654 1.33202C2.43061 0.737942 3.25202 0.36853 4.15513 0.36853ZM19.7059 8.0134V20.2404C19.7059 21.1435 19.3374 21.9649 18.7425 22.559C18.1484 23.1531 17.327 23.5225 16.4239 23.5225H9.8295V25.9503C9.8295 26.3197 9.98135 26.6563 10.2256 26.9013C10.4706 27.1455 10.8072 27.2974 11.1766 27.2974H23.4453C23.8148 27.2974 24.1513 27.1455 24.3964 26.9013C24.6415 26.6563 24.7925 26.3197 24.7925 25.9503V9.36051C24.7925 8.9911 24.6406 8.65454 24.3964 8.40945C24.1513 8.16525 23.8148 8.0134 23.4453 8.0134H19.7059ZM16.4239 2.3035H4.15513C3.78572 2.3035 3.44916 2.45535 3.20407 2.69955C2.95898 2.94464 2.80802 3.2812 2.80802 3.65061V20.2404C2.80802 20.6098 2.95987 20.9464 3.20407 21.1906C3.44916 21.4357 3.78572 21.5875 4.15513 21.5875H8.86158H16.423C16.7924 21.5875 17.1289 21.4357 17.374 21.1906C17.6182 20.9464 17.7701 20.6098 17.7701 20.2404V7.04547V3.65061C17.7701 3.2812 17.6182 2.94464 17.374 2.69955C17.1289 2.45446 16.7924 2.3035 16.423 2.3035H16.4239Z" fill="#2F2F2F"/>
</svg>
