<svg width="54" height="50" viewBox="0 0 54 50" fill="none" xmlns="http://www.w3.org/2000/svg">
<path opacity="0.6" d="M44.6534 0H9.14213C7.23581 0 5.67398 1.51378 5.61444 3.41917L5.42385 9.51777C4.41941 9.55492 3.46645 9.88232 2.78011 10.2941C1.30952 11.1765 -0.161062 12.3529 1.01541 19.4118C2.19188 26.4706 3.36838 31.1765 6.89779 35C8.40023 36.6258 10.6458 37.6471 13.0415 37.6471H40.754C43.1497 37.6471 45.3954 36.6258 46.8978 35C50.4272 31.1765 51.4702 26.4706 52.6467 19.4118C53.8232 12.3529 52.3526 11.1765 50.882 10.2941C50.2262 9.90062 49.3269 9.58419 48.3719 9.52443L48.1811 3.41917C48.1215 1.51378 46.5597 0 44.6534 0Z" fill="white"/>
<path d="M44.6541 0H9.14284C7.23652 0 5.67469 1.51378 5.61515 3.41917L5.42383 9.54146C7.09184 9.10607 10.722 10.8235 11.8984 21.1765L14.5455 19.4118H39.2514L41.8984 21.1765C42.0972 17.0472 43.6705 8.93934 48.3731 9.54146L48.1818 3.41917C48.1223 1.51378 46.5604 0 44.6541 0Z" fill="white"/>
<path d="M41.7132 0H12.0843C10.178 0 8.61618 1.51378 8.55664 3.41917L8.66349 10.5882C10.4282 12.3529 11.0164 16.1765 11.8988 21.1765L14.5458 19.4118H39.2517L41.8988 21.1765C42.1929 16.4706 43.6635 11.7647 45.1341 10.5882L45.2409 3.41917C45.1814 1.51378 43.6196 0 41.7132 0Z" fill="white"/>
<path d="M39.2516 19.4116H14.5457L9.83984 22.6469H43.9575L39.2516 19.4116Z" fill="white"/>
<rect x="8.66406" y="22.3528" width="36.4706" height="8.23529" rx="4" fill="white"/>
<path d="M43.957 49.4119L42.1923 37.6472H38.3688L41.8982 49.4119H43.957Z" fill="white"/>
<path d="M11.0156 49.4119L12.7803 37.6472H16.6039L13.0744 49.4119H11.0156Z" fill="white"/>
<path d="M11.8981 35.2941C11.8981 35.1317 12.0298 35 12.1922 35H40.1334C40.2959 35 40.4275 35.1317 40.4275 35.2941C40.4275 35.4566 40.2959 35.5882 40.1334 35.5882H12.1922C12.0298 35.5882 11.8981 35.4566 11.8981 35.2941Z" fill="#6C6C6C"/>
<path fill-rule="evenodd" clip-rule="evenodd" d="M16.3099 6.17647C16.3099 5.68916 16.7049 5.29412 17.1922 5.29412C17.6796 5.29412 18.0746 5.68916 18.0746 6.17647C18.0746 6.66378 17.6796 7.05882 17.1922 7.05882C16.7049 7.05882 16.3099 6.66378 16.3099 6.17647ZM17.1922 5.88235C17.0298 5.88235 16.8981 6.01403 16.8981 6.17647C16.8981 6.33891 17.0298 6.47059 17.1922 6.47059C17.3547 6.47059 17.4864 6.33891 17.4864 6.17647C17.4864 6.01403 17.3547 5.88235 17.1922 5.88235Z" fill="#6C6C6C"/>
<path fill-rule="evenodd" clip-rule="evenodd" d="M17.1922 10.5882C16.7049 10.5882 16.3099 10.9833 16.3099 11.4706C16.3099 11.9579 16.7049 12.3529 17.1922 12.3529C17.6796 12.3529 18.0746 11.9579 18.0746 11.4706C18.0746 10.9833 17.6796 10.5882 17.1922 10.5882ZM16.8981 11.4706C16.8981 11.3082 17.0298 11.1765 17.1922 11.1765C17.3547 11.1765 17.4864 11.3082 17.4864 11.4706C17.4864 11.633 17.3547 11.7647 17.1922 11.7647C17.0298 11.7647 16.8981 11.633 16.8981 11.4706Z" fill="#6C6C6C"/>
<path fill-rule="evenodd" clip-rule="evenodd" d="M22.7805 6.17647C22.7805 5.68916 23.1755 5.29412 23.6628 5.29412C24.1501 5.29412 24.5452 5.68916 24.5452 6.17647C24.5452 6.66378 24.1501 7.05882 23.6628 7.05882C23.1755 7.05882 22.7805 6.66378 22.7805 6.17647ZM23.6628 5.88235C23.5004 5.88235 23.3687 6.01403 23.3687 6.17647C23.3687 6.33891 23.5004 6.47059 23.6628 6.47059C23.8253 6.47059 23.9569 6.33891 23.9569 6.17647C23.9569 6.01403 23.8253 5.88235 23.6628 5.88235Z" fill="#6C6C6C"/>
<path fill-rule="evenodd" clip-rule="evenodd" d="M23.6628 11.1765C23.1755 11.1765 22.7805 11.5715 22.7805 12.0588C22.7805 12.5461 23.1755 12.9412 23.6628 12.9412C24.1501 12.9412 24.5452 12.5461 24.5452 12.0588C24.5452 11.5715 24.1501 11.1765 23.6628 11.1765ZM23.3687 12.0588C23.3687 11.8964 23.5004 11.7647 23.6628 11.7647C23.8253 11.7647 23.9569 11.8964 23.9569 12.0588C23.9569 12.2213 23.8253 12.3529 23.6628 12.3529C23.5004 12.3529 23.3687 12.2213 23.3687 12.0588Z" fill="#6C6C6C"/>
<path fill-rule="evenodd" clip-rule="evenodd" d="M28.6628 6.17647C28.6628 5.68916 29.0579 5.29412 29.5452 5.29412C30.0325 5.29412 30.4275 5.68916 30.4275 6.17647C30.4275 6.66378 30.0325 7.05882 29.5452 7.05882C29.0579 7.05882 28.6628 6.66378 28.6628 6.17647ZM29.5452 5.88235C29.3827 5.88235 29.2511 6.01403 29.2511 6.17647C29.2511 6.33891 29.3827 6.47059 29.5452 6.47059C29.7076 6.47059 29.8393 6.33891 29.8393 6.17647C29.8393 6.01403 29.7076 5.88235 29.5452 5.88235Z" fill="#6C6C6C"/>
<path fill-rule="evenodd" clip-rule="evenodd" d="M29.5452 11.1765C29.0579 11.1765 28.6628 11.5715 28.6628 12.0588C28.6628 12.5461 29.0579 12.9412 29.5452 12.9412C30.0325 12.9412 30.4275 12.5461 30.4275 12.0588C30.4275 11.5715 30.0325 11.1765 29.5452 11.1765ZM29.2511 12.0588C29.2511 11.8964 29.3827 11.7647 29.5452 11.7647C29.7076 11.7647 29.8393 11.8964 29.8393 12.0588C29.8393 12.2213 29.7076 12.3529 29.5452 12.3529C29.3827 12.3529 29.2511 12.2213 29.2511 12.0588Z" fill="#6C6C6C"/>
<path fill-rule="evenodd" clip-rule="evenodd" d="M35.1334 6.17647C35.1334 5.68916 35.5285 5.29412 36.0158 5.29412C36.5031 5.29412 36.8981 5.68916 36.8981 6.17647C36.8981 6.66378 36.5031 7.05882 36.0158 7.05882C35.5285 7.05882 35.1334 6.66378 35.1334 6.17647ZM36.0158 5.88235C35.8533 5.88235 35.7217 6.01403 35.7217 6.17647C35.7217 6.33891 35.8533 6.47059 36.0158 6.47059C36.1782 6.47059 36.3099 6.33891 36.3099 6.17647C36.3099 6.01403 36.1782 5.88235 36.0158 5.88235Z" fill="#6C6C6C"/>
<path fill-rule="evenodd" clip-rule="evenodd" d="M36.0158 10.5882C35.5285 10.5882 35.1334 10.9833 35.1334 11.4706C35.1334 11.9579 35.5285 12.3529 36.0158 12.3529C36.5031 12.3529 36.8981 11.9579 36.8981 11.4706C36.8981 10.9833 36.5031 10.5882 36.0158 10.5882ZM35.7217 11.4706C35.7217 11.3082 35.8533 11.1765 36.0158 11.1765C36.1782 11.1765 36.3099 11.3082 36.3099 11.4706C36.3099 11.633 36.1782 11.7647 36.0158 11.7647C35.8533 11.7647 35.7217 11.633 35.7217 11.4706Z" fill="#6C6C6C"/>
<path fill-rule="evenodd" clip-rule="evenodd" d="M8.84835 0C6.78317 0 5.09119 1.63993 5.02669 3.7041L4.84447 9.53496C3.88787 9.6177 2.99591 9.9395 2.33502 10.336C1.57443 10.7924 0.766754 11.3554 0.330751 12.7427C-0.0950677 14.0976 -0.158682 16.213 0.431517 19.7542C1.60768 26.8112 2.79299 31.5991 6.3879 35.4936C7.81963 37.0429 9.89796 38.0599 12.1479 38.2147L10.4308 49.6623C10.4181 49.7469 10.4429 49.8329 10.4988 49.8978C10.5547 49.9627 10.636 50 10.7217 50H12.7805C12.9104 50 13.0249 49.9148 13.0622 49.7904L16.5287 38.2353H37.8558L41.3223 49.7904C41.3596 49.9148 41.4741 50 41.604 50H43.6628C43.7484 50 43.8298 49.9627 43.8857 49.8978C43.9416 49.8329 43.9664 49.7469 43.9537 49.6623L42.2131 38.058C44.0117 37.691 45.6367 36.7743 46.82 35.4937C50.4168 31.5972 51.468 26.8045 52.643 19.7542C53.2332 16.213 53.1696 14.0976 52.7438 12.7427C52.3078 11.3554 51.5001 10.7924 50.7396 10.336C50.4317 10.1513 50.0738 9.98285 49.6825 9.84719C49.5719 9.80029 49.4585 9.75912 49.3441 9.72097C49.3033 9.70739 49.2617 9.70322 49.2215 9.7073C48.9459 9.63527 48.6584 9.58058 48.3639 9.54812L48.1813 3.7041C48.1168 1.63993 46.4248 0 44.3596 0H8.84835ZM15.9146 38.2353H12.7396L11.0632 49.4118H12.5616L15.9146 38.2353ZM40.4603 37.6471C42.774 37.6471 44.9412 36.6601 46.3879 35.0946C49.85 31.3441 50.8849 26.7249 52.0628 19.6575C52.6491 16.1399 52.5656 14.1377 52.1826 12.9191C51.885 11.972 51.4025 11.4838 50.8587 11.1086C50.964 11.4455 51.0158 11.854 51.0158 12.3529C51.0158 12.9011 50.8253 14.1619 50.5142 15.7816C50.2006 17.4138 49.7583 19.4408 49.2426 21.5407C48.2143 25.7274 46.8835 30.2481 45.687 32.4914C45.6106 32.6347 45.4325 32.6889 45.2891 32.6125C45.1458 32.536 45.0916 32.3579 45.168 32.2145C46.3246 30.046 47.6408 25.5961 48.6713 21.4004C49.185 19.3092 49.625 17.292 49.9365 15.6706C50.2504 14.0366 50.4275 12.8342 50.4275 12.3529C50.4275 11.5586 50.2846 11.1178 50.0813 10.8448C49.9328 10.6453 49.7335 10.5099 49.4689 10.3957C48.8512 10.1844 48.1425 10.0636 47.4298 10.1139C46.315 10.1925 45.1887 10.6883 44.3624 11.9279C44.1037 12.3158 43.8406 12.9254 43.585 13.6815C43.3312 14.4324 43.0911 15.3081 42.8728 16.2151C42.4361 18.0289 42.0899 19.9525 41.8947 21.2212C41.888 21.2643 41.8724 21.3037 41.8499 21.3379L43.8295 22.6988C43.8536 22.7154 43.8744 22.7349 43.8919 22.7565C44.6376 23.2247 45.1334 24.0544 45.1334 25V28.5294C45.1334 29.9913 43.9483 31.1765 42.4864 31.1765H40.9733C41.8582 32.0126 42.9883 33.5757 43.3647 35.834C43.3914 35.9942 43.2831 36.1458 43.1229 36.1725C42.9627 36.1992 42.8111 36.0909 42.7844 35.9307C42.3429 33.2812 40.7957 31.6815 40.0463 31.1765H11.9853C11.2359 31.6815 9.68868 33.2812 9.24711 35.9307C9.2204 36.0909 9.06887 36.1992 8.90864 36.1725C8.74841 36.1458 8.64017 35.9942 8.66687 35.834C9.04326 33.5757 10.1733 32.0126 11.0582 31.1765H10.7217C9.25972 31.1765 8.07459 29.9913 8.07459 28.5294V25C8.07459 24.0544 8.57042 23.2246 9.31627 22.7564C9.33371 22.7348 9.35453 22.7153 9.37858 22.6988L11.2927 21.3829C11.0924 20.1126 10.723 18.1878 10.269 16.3644C10.034 15.4204 9.77725 14.5075 9.51076 13.7285C9.24228 12.9437 8.97085 12.3158 8.71221 11.9279C7.88587 10.6883 6.75955 10.1925 5.64475 10.1139C5.1212 10.0769 4.5998 10.1323 4.11505 10.2481C4.09514 10.2608 4.07336 10.2712 4.04995 10.279C3.62408 10.421 3.32859 10.5736 3.12666 10.8448C2.92337 11.1178 2.78047 11.5586 2.78047 12.3529C2.78047 12.8342 2.95764 14.0366 3.27152 15.6706C3.58298 17.292 4.02305 19.3092 4.53669 21.4004C5.56721 25.5961 6.88346 30.046 8.03999 32.2145C8.11643 32.3579 8.06221 32.536 7.91888 32.6125C7.77556 32.6889 7.5974 32.6347 7.52096 32.4914C6.32455 30.2481 4.99374 25.7274 3.96543 21.5407C3.44966 19.4408 3.00739 17.4138 2.69384 15.7816C2.38272 14.1619 2.19224 12.9011 2.19224 12.3529C2.19224 11.7962 2.2567 11.352 2.38813 10.9944C1.77491 11.3868 1.22065 11.8731 0.891924 12.9191C0.50892 14.1377 0.425477 16.1399 1.01175 19.6575C2.18853 26.7182 3.35622 31.342 6.82014 35.0946C8.26684 36.6601 10.434 37.6471 12.7477 37.6471H40.4603ZM41.8228 49.4118L38.4699 38.2353H41.6448L43.3213 49.4118H41.8228ZM9.9993 0.588235H8.84835C7.10089 0.588235 5.66922 1.97587 5.61463 3.72248L5.4336 9.51549C5.5176 9.5173 5.60182 9.52113 5.68616 9.52708C6.50603 9.58495 7.33661 9.84394 8.07459 10.3953V3.71329C8.07459 2.41308 8.68178 1.47236 9.54261 0.866964C9.68832 0.764491 9.84111 0.671683 9.9993 0.588235ZM8.66283 10.9212V3.71329C8.66283 2.62374 9.16044 1.85487 9.881 1.34812C10.612 0.834062 11.5782 0.588235 12.4846 0.588235H40.7217C41.628 0.588235 42.5943 0.834062 43.3253 1.34812C44.0458 1.85487 44.5435 2.62374 44.5435 3.71329L44.5452 10.7853C44.3061 11.0192 44.0806 11.29 43.8729 11.6016C43.5702 12.0557 43.2874 12.7249 43.0277 13.4931C42.7663 14.2666 42.5216 15.1606 42.3009 16.0774C41.876 17.8423 41.5366 19.7057 41.3361 20.9846L39.4247 19.6705C39.1796 19.502 38.8891 19.4118 38.5916 19.4118H14.6165C14.319 19.4118 14.0285 19.502 13.7834 19.6705L11.8291 21.0141C11.6188 19.7359 11.2664 17.9356 10.8398 16.2223C10.6025 15.2689 10.3411 14.3385 10.0673 13.5381C9.7955 12.7435 9.50438 12.0557 9.20165 11.6016C9.03302 11.3486 8.85266 11.1225 8.66283 10.9212ZM42.2881 22.3529L39.0915 20.1553C38.9444 20.0541 38.7701 20 38.5916 20H14.6165C14.438 20 14.2637 20.0541 14.1166 20.1553L10.92 22.3529H42.2881ZM42.4864 30.5882C43.6234 30.5882 44.5452 29.6665 44.5452 28.5294V25C44.5452 23.8629 43.6234 22.9412 42.4864 22.9412H10.7217C9.58459 22.9412 8.66283 23.8629 8.66283 25V28.5294C8.66283 29.6665 9.58459 30.5882 10.7217 30.5882H42.4864ZM45.1333 10.2996C45.8372 9.8137 46.6175 9.58149 47.3884 9.52708C47.5175 9.51797 47.6462 9.51383 47.7743 9.51429L47.5933 3.72248C47.5387 1.97587 46.1071 0.588235 44.3596 0.588235H43.207C43.3652 0.671683 43.518 0.764491 43.6637 0.866964C44.5245 1.47235 45.1317 2.41311 45.1317 3.71329L45.1333 10.2996Z" fill="#6C6C6C"/>
</svg>
