<svg width="24" height="24" viewBox="0 0 24 24" fill="none" xmlns="http://www.w3.org/2000/svg">
<g clip-path="url(#clip0_12_135)">
<path d="M16.1645 3.0625V1.83125C16.1645 0.81875 15.2724 0 14.1692 0H9.43637C8.33998 0 7.44789 0.81875 7.44789 1.83125V3.0625H2V4H3.43688L5.04401 22.1688C5.04401 23.1813 5.9361 24 7.0393 24H16.6412C17.7444 24 18.6365 23.1813 18.6365 22.1688L20.2232 4H21.6124V3.0625H16.1645ZM8.46937 1.83125C8.46937 1.325 8.89158 0.9375 9.44318 0.9375H14.176C14.7276 0.9375 15.1498 1.325 15.1498 1.83125V3.0625H8.47618V1.83125H8.46937ZM8.17655 21.0625L7.44789 6H8.43532L9.1776 21.0625H8.17655ZM12.2829 21.0625H11.3295V6H12.2829V21.0625ZM15.4359 21.0625H14.4416L15.1771 6H16.1645L15.4359 21.0625Z" fill="#666666"/>
</g>
<defs>
<clipPath id="clip0_12_135">
<rect width="24" height="24" fill="white"/>
</clipPath>
</defs>
</svg>
