<svg width="24" height="24" viewBox="0 0 24 24" fill="none" xmlns="http://www.w3.org/2000/svg">
<path d="M20.2081 0L24 3.48016L21.1093 6.13436L17.3174 2.6542L20.2081 0ZM6.31958 16.2268H10.1115L19.322 7.77352L15.5301 4.29336L6.31958 12.7467V16.2268Z" fill="#666666"/>
<path d="M20.2235 19.707H6.51955C6.48669 19.707 6.45257 19.7186 6.4197 19.7186C6.37799 19.7186 6.33628 19.7081 6.2933 19.707H2.52794V3.46623H11.1823L13.7103 1.14612H2.52794C1.13378 1.14612 0 2.18553 0 3.46623V19.707C0 20.9877 1.13378 22.0271 2.52794 22.0271H20.2235C20.894 22.0271 21.537 21.7826 22.011 21.3475C22.4851 20.9124 22.7515 20.3223 22.7515 19.707V9.65163L20.2235 11.9717V19.707Z" fill="#666666"/>
</svg>
