<svg width="16" height="16" viewBox="0 0 16 16" fill="none" xmlns="http://www.w3.org/2000/svg">
<path d="M10.3226 8.32258C10.3226 9.60645 9.28387 10.6452 8 10.6452C6.71613 10.6452 5.67742 9.60645 5.67742 8.32258C5.67742 7.03871 6.71613 6 8 6C9.28387 6 10.3226 7.03871 10.3226 8.32258ZM13.6774 6C12.3935 6 11.3548 7.03871 11.3548 8.32258C11.3548 9.60645 12.3935 10.6452 13.6774 10.6452C14.9613 10.6452 16 9.60645 16 8.32258C16 7.03871 14.9613 6 13.6774 6ZM2.32258 6C1.03871 6 0 7.03871 0 8.32258C0 9.60645 1.03871 10.6452 2.32258 10.6452C3.60645 10.6452 4.64516 9.60645 4.64516 8.32258C4.64516 7.03871 3.60645 6 2.32258 6Z" fill="#666666"/>
</svg>
