<svg width="27" height="27" viewBox="0 0 27 27" fill="none" xmlns="http://www.w3.org/2000/svg">
<path d="M13.5 0.375C10.9041 0.375 8.36654 1.14477 6.20815 2.58696C4.04975 4.02915 2.36749 6.079 1.37409 8.47728C0.380687 10.8756 0.120768 13.5146 0.627199 16.0606C1.13363 18.6066 2.38367 20.9452 4.21923 22.7808C6.05479 24.6163 8.39345 25.8664 10.9394 26.3728C13.4854 26.8792 16.1244 26.6193 18.5227 25.6259C20.921 24.6325 22.9708 22.9503 24.413 20.7919C25.8552 18.6335 26.625 16.0959 26.625 13.5C26.625 10.019 25.2422 6.68064 22.7808 4.21922C20.3194 1.75781 16.981 0.375 13.5 0.375ZM13.5 24.4375C11.3368 24.4375 9.22212 23.796 7.42346 22.5942C5.62479 21.3924 4.22291 19.6842 3.39507 17.6856C2.56724 15.687 2.35064 13.4879 2.77267 11.3662C3.19469 9.24453 4.23639 7.29566 5.76603 5.76602C7.29566 4.23638 9.24454 3.19469 11.3662 2.77266C13.4879 2.35064 15.687 2.56723 17.6856 3.39507C19.6842 4.2229 21.3924 5.62479 22.5942 7.42345C23.796 9.22211 24.4375 11.3368 24.4375 13.5C24.4375 16.4008 23.2852 19.1828 21.234 21.234C19.1828 23.2852 16.4008 24.4375 13.5 24.4375Z" fill="#2F2F2F" fill-opacity="0.7"/>
<path d="M13.5 10.9844C13.21 10.9844 12.9318 11.0996 12.7266 11.3047C12.5215 11.5098 12.4063 11.788 12.4063 12.0781V19.5156C12.4063 19.8057 12.5215 20.0839 12.7266 20.289C12.9318 20.4941 13.21 20.6094 13.5 20.6094C13.7901 20.6094 14.0683 20.4941 14.2734 20.289C14.4785 20.0839 14.5938 19.8057 14.5938 19.5156V12.0781C14.5938 11.788 14.4785 11.5098 14.2734 11.3047C14.0683 11.0996 13.7901 10.9844 13.5 10.9844ZM13.5 6.49999C13.2039 6.51113 12.9233 6.6352 12.7159 6.84675C12.5084 7.05829 12.3898 7.34124 12.3844 7.63749V7.81249C12.3839 7.9552 12.4131 8.09645 12.4701 8.22725C12.5272 8.35806 12.6108 8.47555 12.7158 8.57226C12.8207 8.66897 12.9446 8.74278 13.0797 8.78898C13.2147 8.83518 13.3578 8.85276 13.5 8.84062C13.7867 8.82979 14.0586 8.71108 14.2614 8.50826C14.4642 8.30545 14.583 8.03349 14.5938 7.74687V7.48437C14.5946 7.34536 14.5661 7.20774 14.5099 7.08058C14.4537 6.95341 14.3713 6.83959 14.2679 6.74659C14.1646 6.6536 14.0428 6.58354 13.9104 6.54104C13.778 6.49853 13.6382 6.48455 13.5 6.49999Z" fill="#2F2F2F" fill-opacity="0.7"/>
</svg>
