<svg width="17" height="16" viewBox="0 0 17 16" fill="none" xmlns="http://www.w3.org/2000/svg">
<g clip-path="url(#clip0_141_2)">
<path d="M15.5236 6.28571H10.3808V1.14286C10.3808 0.511786 9.869 0 9.23793 0H8.09508C7.464 0 6.95222 0.511786 6.95222 1.14286V6.28571H1.80936C1.17829 6.28571 0.666504 6.7975 0.666504 7.42857V8.57143C0.666504 9.2025 1.17829 9.71429 1.80936 9.71429H6.95222V14.8571C6.95222 15.4882 7.464 16 8.09508 16H9.23793C9.869 16 10.3808 15.4882 10.3808 14.8571V9.71429H15.5236C16.1547 9.71429 16.6665 9.2025 16.6665 8.57143V7.42857C16.6665 6.7975 16.1547 6.28571 15.5236 6.28571Z" fill="white"/>
</g>
<defs>
<clipPath id="clip0_141_2">
<rect width="16" height="16" fill="white" transform="translate(0.666504)"/>
</clipPath>
</defs>
</svg>
