<svg width="24" height="24" viewBox="0 0 24 24" fill="none" xmlns="http://www.w3.org/2000/svg">
<g clip-path="url(#clip0_455_727)">
<path fill-rule="evenodd" clip-rule="evenodd" d="M0 23.9493V20.4551C0 20.4551 7.28655 20.4806 8.67501 20.4072C10.0635 20.3338 11.9745 19.7155 13.3787 18.6188C14.9699 17.4865 15.9018 15.876 16.5042 14.8351L16.5042 14.8351C16.6075 14.6567 16.701 14.4951 16.7865 14.3554C17.2119 13.6609 18.2797 11.8317 19.4043 9.61544C20.5819 7.29446 21.9225 4.43119 23.031 2.06345L23.0311 2.06326L23.0313 2.06292C23.3815 1.31491 23.7086 0.616357 24 0L19.966 10.5846C19.9037 10.758 19.8374 10.9441 19.7671 11.1411C18.8755 13.6421 17.3593 17.895 15.6904 20.0096C13.8894 22.2915 10.3404 23.4647 9.93191 23.5923C9.5234 23.7198 8.35111 23.9523 7.45532 23.9748C4.7149 24.0437 0 23.9493 0 23.9493ZM24 0C23.1564 1.73653 21.9435 4.07092 21.1915 5.47971C20.4395 6.8885 17.3341 11.7843 16.0085 13.5942C15.5265 14.1812 14.2548 15.6119 13.0979 16.6294C11.941 17.6468 9.57447 18.1781 8.62979 18.2801C7.68511 18.3821 0 18.3382 0 18.3382V14.8185C0.360926 14.8185 0.780123 14.8191 1.24075 14.8198L1.24245 14.8198H1.24279C2.31716 14.8214 3.61664 14.8233 4.92766 14.8185C6.77059 14.8117 8.69327 14.778 10.4426 14.1809C13.4711 13.147 15.6511 11.061 16.7671 9.99312C16.8625 9.90187 16.9501 9.81806 17.0298 9.74297C17.9552 8.87101 20.1447 6.09573 20.7064 5.30507C21.131 4.70731 21.4681 4.1571 21.7949 3.62374C21.9004 3.45163 22.0047 3.28127 22.1106 3.11163C22.8524 1.92336 23.4715 0.907522 24 0ZM0.433992 12.6761C0.433992 12.6761 7.0473 12.8219 9.2425 12.4975C11.4377 12.1732 16.1722 9.91518 19.251 6.55482C20.5344 5.1541 21.3195 3.99069 21.9475 3.06014C21.9942 2.991 22.04 2.92315 22.0851 2.85658C22.5288 2.20115 22.9488 1.5709 23.297 1.04846C23.5932 0.603975 23.8374 0.237528 24 0C23.7883 0.267796 23.5715 0.549439 23.3439 0.845088C22.3358 2.15444 21.1162 3.73851 19.2 5.61113C16.9544 7.55607 13.3451 9.10692 10.4936 9.07983C4.98147 9.02748 4.47942 9.17021 4.01195 9.30311C3.98297 9.31135 3.95411 9.31956 3.92421 9.32767C3.02174 9.62886 1.01938 10.8967 0.433992 12.6761Z" fill="#2F2F2F"/>
</g>
<defs>
<clipPath id="clip0_455_727">
<rect width="24" height="24" fill="white"/>
</clipPath>
</defs>
</svg>
