<svg width="24" height="24" viewBox="0 0 24 24" fill="none" xmlns="http://www.w3.org/2000/svg">
<path d="M19.2743 0H5.77143C4.19375 0.000714286 2.91482 1.27946 2.91429 2.85714V4.09143H1.57143C1.25571 4.09143 1 4.34732 1 4.66286C1 4.97839 1.25571 5.23429 1.57143 5.23429H2.90839V8.98286H1.57143C1.25571 8.98286 1 9.23857 1 9.55429C1 9.86982 1.25571 10.1257 1.57143 10.1257H2.90839V13.8743H1.57143C1.25571 13.8743 1 14.1302 1 14.4457C1 14.7614 1.25571 15.0171 1.57143 15.0171H2.90839V18.7657H1.57143C1.25571 18.7657 1 19.0216 1 19.3371C1 19.6527 1.25571 19.9086 1.57143 19.9086H2.90839V21.1429C2.90911 22.7205 4.18786 23.9993 5.76554 24H19.2684C20.8461 23.9993 22.1252 22.7205 22.1255 21.1429V2.85714C22.1279 1.28054 20.8509 0.00107143 19.2743 0ZM20.9886 21.1429C20.9857 22.0884 20.2198 22.8545 19.2743 22.8571H5.77143C4.82589 22.8545 4.05982 22.0884 4.05714 21.1429V19.9086H5.39411C5.70982 19.9086 5.96554 19.6527 5.96554 19.3371C5.96554 19.0216 5.70982 18.7657 5.39411 18.7657H4.05714V15.0171H5.39411C5.70982 15.0171 5.96554 14.7614 5.96554 14.4457C5.96554 14.1302 5.70982 13.8743 5.39411 13.8743H4.05714V10.1257H5.39411C5.70982 10.1257 5.96554 9.86982 5.96554 9.55429C5.96554 9.23857 5.70982 8.98286 5.39411 8.98286H4.05714V5.23429H5.39411C5.70982 5.23429 5.96554 4.97839 5.96554 4.66286C5.96554 4.34732 5.70982 4.09143 5.39411 4.09143H4.05714V2.85714C4.05982 1.91161 4.82589 1.14554 5.77143 1.14286H19.2743C20.2198 1.14554 20.9857 1.91161 20.9886 2.85714V21.1429Z" fill="#2F2F2F"/>
<path d="M12.52 11.8344C14.0505 11.8344 15.2914 10.5936 15.2914 9.06293C15.2914 7.53222 14.0505 6.2915 12.52 6.2915C10.9892 6.2915 9.74854 7.53222 9.74854 9.06293C9.74996 10.5929 10.9898 11.8329 12.52 11.8344ZM12.52 7.42865C13.4192 7.42865 14.1485 8.15793 14.1485 9.05722C14.1485 9.9565 13.4192 10.6858 12.52 10.6858C11.6205 10.6858 10.8914 9.9565 10.8914 9.05722C10.893 8.15865 11.621 7.43025 12.52 7.42865Z" fill="#2F2F2F"/>
<path d="M12.52 12.7544C10.1428 12.7544 8.27979 14.6801 8.27979 17.143C8.28068 17.4581 8.53604 17.7135 8.85121 17.7144H16.1885C16.5037 17.7135 16.7591 17.4581 16.76 17.143C16.76 14.6801 14.8969 12.7544 12.52 12.7544ZM9.46836 16.5715C9.71425 15.0115 10.9428 13.8973 12.52 13.8973C14.0969 13.8973 15.3314 15.0115 15.5714 16.5715H9.46836Z" fill="#2F2F2F"/>
</svg>
