<svg width="24" height="24" viewBox="0 0 24 24" fill="none" xmlns="http://www.w3.org/2000/svg">
<path d="M23.7466 11.3943L21.1762 8.82339L12.6083 0.253733C12.5287 0.173411 12.4339 0.109658 12.3295 0.0661507C12.2251 0.0226437 12.1131 0.000244141 12 0.000244141C11.8869 0.000244141 11.7749 0.0226437 11.6705 0.0661507C11.5661 0.109658 11.4713 0.173411 11.3917 0.253733L2.8238 8.82339L0.253436 11.3943C0.173131 11.4739 0.109391 11.5687 0.0658929 11.6732C0.0223949 11.7776 0 11.8896 0 12.0027C0 12.1159 0.0223949 12.2279 0.0658929 12.3323C0.109391 12.4367 0.173131 12.5315 0.253436 12.6112C0.333086 12.6915 0.427848 12.7553 0.532255 12.7988C0.636663 12.8423 0.74865 12.8647 0.861756 12.8647C0.974862 12.8647 1.08685 12.8423 1.19126 12.7988C1.29566 12.7553 1.39043 12.6915 1.47008 12.6112L2.57533 11.4971V23.1433C2.57533 23.3706 2.6656 23.5885 2.82628 23.7492C2.98696 23.91 3.20489 24.0002 3.43212 24.0002H20.5679C20.7951 24.0002 21.013 23.91 21.1737 23.7492C21.3344 23.5885 21.4247 23.3706 21.4247 23.1433V11.4971L22.5299 12.6112C22.6096 12.6915 22.7043 12.7553 22.8087 12.7988C22.9132 12.8423 23.0251 12.8647 23.1382 12.8647C23.2513 12.8647 23.3633 12.8423 23.4677 12.7988C23.5722 12.7553 23.6669 12.6915 23.7466 12.6112C23.8269 12.5315 23.8906 12.4367 23.9341 12.3323C23.9776 12.2279 24 12.1159 24 12.0027C24 11.8896 23.9776 11.7776 23.9341 11.6732C23.8906 11.5687 23.8269 11.4739 23.7466 11.3943ZM19.7111 22.2863H4.28891V9.78319L12 2.0705L19.7111 9.78319V22.2863Z" fill="black" fill-opacity="0.9"/>
</svg>
