<svg width="26" height="26" viewBox="0 0 26 26" fill="none" xmlns="http://www.w3.org/2000/svg">
<path d="M13.7583 0.199951C9.61368 0.199951 5.95352 2.35296 3.82739 5.58247H3.88122C4.79626 5.58247 5.65747 5.95924 6.27647 6.57823C7.94507 4.26375 10.6902 2.78356 13.7583 2.78356C18.8717 2.78356 23.0163 6.9281 23.0163 12.0415C23.0163 15.1095 21.5092 17.8546 19.2216 19.5232C19.6522 19.9269 19.9483 20.4382 20.1097 21.0303C20.1905 21.3532 20.2174 21.6493 20.2174 21.9722C23.4738 19.8461 25.6 16.186 25.6 12.0415C25.6 5.52864 20.2981 0.199951 13.7583 0.199951Z" fill="white"/>
<path d="M17.9835 10.7498H15.0231V6.84747C15.0231 6.12083 14.431 5.55566 13.7313 5.55566C13.0046 5.55566 12.4395 6.14774 12.4395 6.84747V12.0685C12.4395 12.7951 13.0315 13.3603 13.7313 13.3603H17.9566C18.6833 13.3603 19.2484 12.7682 19.2484 12.0685C19.2753 11.3419 18.6833 10.7498 17.9835 10.7498Z" fill="white"/>
<path d="M17.3109 20.8423L13.6507 18.9584C13.1393 18.6893 12.4934 18.8239 12.1436 19.2814L10.7979 21.0038C9.47919 20.3041 8.48341 19.6312 7.32615 18.474C6.08816 17.236 5.44224 16.2403 4.76942 14.9485L6.46494 13.6297C6.92246 13.2799 7.05702 12.634 6.78789 12.1226L4.90399 8.48944C4.58103 7.84353 3.74673 7.62823 3.15464 8.03192L0.813216 9.59285C0.274957 9.94272 -0.0479986 10.5886 0.0058273 11.2345C0.0596532 11.9073 0.140392 12.7416 0.274957 13.3337C0.947781 15.9442 2.58947 18.6355 4.87707 20.923C7.16467 23.2106 9.85597 24.8523 12.4665 25.5251C13.0586 25.6866 13.8929 25.7673 14.5657 25.7942C15.2116 25.848 15.8576 25.5251 16.2074 24.9599L17.7146 22.5916C18.1721 21.9726 17.9568 21.1653 17.3109 20.8423Z" fill="white"/>
</svg>
