<svg width="24" height="24" viewBox="0 0 24 24" fill="none" xmlns="http://www.w3.org/2000/svg">
<path d="M2 14.5C2 12.57 3.57 11 5.5 11C7.43 11 9 12.57 9 14.5C9 16.43 7.43 18 5.5 18C3.57 18 2 16.43 2 14.5ZM15 14.5C15 16.43 16.57 18 18.5 18C20.43 18 22 16.43 22 14.5C22 12.57 20.43 11 18.5 11C16.57 11 15 12.57 15 14.5ZM21 19H16C14.346 19 13 20.346 13 22V24H24V22C24 20.346 22.654 19 21 19ZM14.928 9H18V2.048C18 0.919 17.081 0 15.952 0H8.048C6.919 0 6 0.918 6 2.048V9H9.202L11.036 10.617C11.326 10.873 11.689 11.001 12.052 11.001C12.41 11.001 12.768 10.875 13.05 10.625L14.928 9.001V9ZM8 19H3C1.346 19 0 20.346 0 22V24H11V22C11 20.346 9.654 19 8 19Z" fill="black"/>
</svg>
