<svg width="22" height="22" viewBox="0 0 22 22" fill="none" xmlns="http://www.w3.org/2000/svg">
<path d="M4.72917 9.59417C6.40917 12.8958 9.11 15.5967 12.4175 17.2767L14.9842 14.7042C15.305 14.3833 15.7658 14.29 16.1683 14.4183C17.475 14.85 18.8808 15.0833 20.3333 15.0833C20.9808 15.0833 21.5 15.6025 21.5 16.25V20.3333C21.5 20.9808 20.9808 21.5 20.3333 21.5C9.37833 21.5 0.5 12.6217 0.5 1.66667C0.5 1.01917 1.025 0.5 1.66667 0.5H5.75C6.3975 0.5 6.91667 1.01917 6.91667 1.66667C6.91667 3.11917 7.15 4.525 7.58167 5.83167C7.71 6.23417 7.61667 6.695 7.29583 7.01583L4.72917 9.59417Z" fill="black"/>
</svg>
