<svg
  width="13"
  height="14"
  viewBox="0 0 13 14"
  fill="none"
  xmlns="http://www.w3.org/2000/svg"
  class="w-[12.51px] h-3.5 opacity-60"
  preserveAspectRatio="none"
>
  <g opacity="0.6">
    <path
      d="M3.74059 7.48999C1.72067 8.39999 0.25592 10.29 0 12.6C0 13.37 0.58303 14 1.35625 14H11.1562C11.9297 14 12.5128 13.37 12.5128 12.6C12.2566 10.29 10.7915 8.39999 8.77205 7.48999C8.31775 8.39999 7.36435 9.10002 6.25625 9.10002C5.14815 9.10002 4.19454 8.39999 3.74059 7.48999Z"
      fill="black"
    ></path>
    <path
      d="M9.75586 3.5C9.75586 4.42826 9.38711 5.3185 8.73073 5.97487C8.07436 6.63125 7.18412 7 6.25586 7C5.3276 7 4.43736 6.63125 3.78099 5.97487C3.12461 5.3185 2.75586 4.42826 2.75586 3.5C2.75586 2.57174 3.12461 1.6815 3.78099 1.02513C4.43736 0.368749 5.3276 0 6.25586 0C7.18412 0 8.07436 0.368749 8.73073 1.02513C9.38711 1.6815 9.75586 2.57174 9.75586 3.5Z"
      fill="black"
    ></path>
    <path
      d="M6.25625 6.29999C5.36235 6.29999 4.51024 6.48829 3.74059 6.82499C1.72067 7.70839 0.25592 9.62289 0 11.9C0 12.6735 0.58303 13.3 1.35625 13.3H11.1562C11.9297 13.3 12.5128 12.6735 12.5128 11.9C12.2566 9.62289 10.7915 7.70839 8.77205 6.82499C8.00205 6.48829 7.15015 6.29999 6.25625 6.29999Z"
      fill="black"
    ></path>
  </g>
</svg> 