<svg xmlns="http://www.w3.org/2000/svg" version="1.1" viewBox="-5.0 -10.0 110.0 135.0">
 <path d="m78.859 30.531c3.0312 0 5.7656 1.8242 6.9219 4.6289 1.1602 2.8008 0.51562 6.0234-1.6328 8.1641-2.1445 2.1406-5.3711 2.7773-8.168 1.6094-2.7969-1.1641-4.6172-3.9023-4.6094-6.9336 0-1.9844 0.78906-3.8906 2.1914-5.293 1.4062-1.4023 3.3125-2.1914 5.2969-2.1875zm-28.859 45.789c-3.1016 0-13.738-0.76953-19-3.4688-2.7812-1.4297-2.9297-2.1797-2.9297-4.9219 0-7.8203 4.1719-15.047 10.945-18.957s15.117-3.9102 21.891 0 10.945 11.137 10.945 18.957c0 2.7383-0.14844 3.4883-2.9297 4.9219-5.2188 2.6992-15.859 3.4688-19 3.4688zm0-52.641c4.0898 0 7.7773 2.4648 9.3398 6.2422 1.5664 3.7773 0.69922 8.125-2.1914 11.016-2.8906 2.8945-7.2383 3.7578-11.016 2.1914-3.7812-1.5625-6.2422-5.25-6.2422-9.3398 0-2.6797 1.0664-5.25 2.9609-7.1484 1.8945-1.8945 4.4688-2.9609 7.1484-2.9609zm-28.859 45.609c1.7109-0.011718 3.418-0.10547 5.1211-0.28906-0.29297-6.3984 2.0156-12.641 6.3984-17.309-3.0234-3.0781-7.1484-4.8203-11.461-4.8398-4.3164-0.019531-8.457 1.6797-11.512 4.7266-3.0508 3.0508-4.7617 7.1875-4.7461 11.5 0 2 0.10938 2.5781 2.1719 3.6406 3.8594 2 11.738 2.6719 14 2.5703zm57.719 0c2.2891 0.10156 10.172-0.57031 14-2.5703 2.0586-1.0586 2.1719-1.6094 2.1719-3.6406-0.003906-4.3008-1.7188-8.4219-4.7695-11.457-3.0469-3.0312-7.1797-4.7266-11.48-4.7109-4.3008 0.019532-8.418 1.75-11.441 4.8086 4.375 4.6641 6.6836 10.895 6.3984 17.281 1.7031 0.17188 3.4102 0.25781 5.1211 0.26172zm-57.719-38.758c3.0312-0.003906 5.7656 1.8203 6.9297 4.6211 1.1602 2.8008 0.51953 6.0234-1.6289 8.168-2.1445 2.1406-5.3711 2.7812-8.168 1.6133-2.8008-1.1641-4.6211-3.9023-4.6133-6.9336 0.011719-4.125 3.3555-7.4648 7.4805-7.4688z" fill-rule="evenodd"/>
</svg>