<svg width="158" height="152" viewBox="0 0 158 152" fill="none" xmlns="http://www.w3.org/2000/svg">
<circle cx="76" cy="76" r="76" fill="url(#paint0_linear_8872_18356)"/>
<g filter="url(#filter0_d_8872_18356)">
<path fill-rule="evenodd" clip-rule="evenodd" d="M32.1703 63.3797C32.1703 63.3797 65.2365 64.1088 76.2124 62.4871C87.1883 60.8653 110.861 49.5755 126.255 32.7738C132.671 25.7703 136.597 19.9534 139.737 15.3006C139.97 14.9549 140.199 14.6156 140.425 14.2828C142.643 11.0059 144.743 7.85482 146.484 5.24272C147.965 3.02012 149.186 1.18772 149.999 0C148.941 1.33897 147.857 2.74718 146.719 4.22542C141.678 10.7721 135.58 18.6924 125.999 28.0554C114.771 37.78 96.7253 45.5342 82.4677 45.3988C54.9075 45.137 52.3972 45.8506 50.0599 46.5151C49.915 46.5563 49.7707 46.5974 49.6212 46.6379C45.1089 48.1439 35.0972 54.4832 32.1703 63.3797ZM30 119.746V102.275C30 102.275 66.4324 102.403 73.3747 102.036C80.3169 101.668 89.8718 98.577 96.893 93.0935C104.849 87.4324 109.508 79.38 112.52 74.1754C113.036 73.2835 113.504 72.4752 113.932 71.7769C116.059 68.3043 121.398 59.1583 127.02 48.0773C132.909 36.4721 139.612 22.1554 145.155 10.3166L145.156 10.3147C146.907 6.57479 148.542 3.08217 149.999 0.0004793L129.829 52.9232C129.518 53.7899 129.186 54.7205 128.835 55.7054C124.377 68.2104 116.796 89.4745 108.451 100.048C99.4462 111.457 81.7017 117.323 79.6591 117.961C77.6166 118.598 71.7552 119.761 67.2763 119.874C53.5743 120.218 30 119.746 30 119.746ZM149.999 0.0004793C145.781 8.68307 139.716 20.3549 135.956 27.3988C132.197 34.4427 116.67 58.9216 110.042 67.9711C107.632 70.9061 101.273 78.0593 95.4888 83.1465C89.7042 88.2338 77.8719 90.89 73.1485 91.4001C68.4252 91.9102 30 91.6907 30 91.6907V74.0923C31.8068 74.0923 33.9058 74.0954 36.2122 74.0988H36.2143C41.586 74.1068 48.0832 74.1165 54.6381 74.0923C63.8527 74.0583 73.466 73.89 82.2123 70.9042C97.355 65.7348 108.255 55.305 113.835 49.9656C114.312 49.5094 114.75 49.0903 115.148 48.7149C119.775 44.3551 130.722 30.4789 133.531 26.5256C135.654 23.5369 137.34 20.7859 138.974 18.1192L138.975 18.1172C139.502 17.2573 140.023 16.4061 140.552 15.5585C144.261 9.61718 147.357 4.53805 149.999 0.0004793Z" fill="white"/>
</g>
<defs>
<filter id="filter0_d_8872_18356" x="30" y="0" width="128" height="128" filterUnits="userSpaceOnUse" color-interpolation-filters="sRGB">
<feFlood flood-opacity="0" result="BackgroundImageFix"/>
<feColorMatrix in="SourceAlpha" type="matrix" values="0 0 0 0 0 0 0 0 0 0 0 0 0 0 0 0 0 0 127 0" result="hardAlpha"/>
<feOffset dx="4" dy="4"/>
<feGaussianBlur stdDeviation="2"/>
<feComposite in2="hardAlpha" operator="out"/>
<feColorMatrix type="matrix" values="0 0 0 0 0 0 0 0 0 0 0 0 0 0 0 0 0 0 0.5 0"/>
<feBlend mode="normal" in2="BackgroundImageFix" result="effect1_dropShadow_8872_18356"/>
<feBlend mode="normal" in="SourceGraphic" in2="effect1_dropShadow_8872_18356" result="shape"/>
</filter>
<linearGradient id="paint0_linear_8872_18356" x1="76" y1="0" x2="76" y2="152" gradientUnits="userSpaceOnUse">
<stop stop-color="#21254A"/>
<stop offset="1" stop-color="#154556"/>
</linearGradient>
</defs>
</svg>
