<svg width="25" height="23" viewBox="0 0 25 23" fill="none" xmlns="http://www.w3.org/2000/svg">
<path opacity="0.8" d="M9.74827 22.5154C14.8112 22.5154 18.9155 18.2752 18.9155 13.0447C18.9155 7.81415 14.8112 3.57396 9.74827 3.57396C4.68536 3.57396 0.581055 7.81415 0.581055 13.0447C0.581055 18.2752 4.68536 22.5154 9.74827 22.5154Z" fill="#EFEFEF"/>
<path d="M10.1703 20.3645L10.054 20.1598C8.27792 17.0334 3.55814 10.3989 3.51047 10.3323L3.44238 10.2367L5.05039 8.59493L10.1404 12.2669C13.3453 7.97042 16.3352 5.01943 18.2855 3.29616C20.4189 1.41109 21.8077 0.543257 21.8217 0.534941L21.8533 0.515411H24.5809L24.3203 0.755131C17.6195 6.92119 10.3564 20.0266 10.2841 20.1582L10.1703 20.3645Z" fill="black" fill-opacity="0.9"/>
</svg>
