<svg width="31" height="30" viewBox="0 0 31 30" fill="none" xmlns="http://www.w3.org/2000/svg">
<path d="M2.87819 27.1395H28.6048V24.9251H2.87819V27.1395ZM30.5025 27.7856H0.980469V30H30.5025V27.7856ZM5.17871 24.2779H8.99547V13.0896H5.17871V24.2779ZM13.8333 24.2779H17.6488V13.0896H13.8333V24.2779ZM22.4891 24.2779H26.3046V13.0896H22.4891V24.2779ZM15.741 3.17464C16.5435 3.17464 17.269 3.50017 17.7939 4.02507C18.3188 4.54997 18.6444 5.2755 18.6444 6.078C18.6444 6.8805 18.3188 7.60603 17.7939 8.13093C17.269 8.65583 16.5423 8.98137 15.741 8.98137C14.941 8.98137 14.2155 8.65583 13.6893 8.12967C13.1632 7.60603 12.8377 6.87924 12.8377 6.07674C12.8377 5.27424 13.1632 4.54871 13.6982 4.01373C14.2332 3.49009 14.9499 3.17338 15.741 3.17338V3.17464ZM17.3372 4.48185C16.9284 4.07304 16.3643 3.82067 15.741 3.82067C15.1253 3.82067 14.5688 4.06545 14.1537 4.473C13.7373 4.89066 13.4837 5.45468 13.4837 6.078C13.4837 6.70133 13.736 7.2666 14.1449 7.67415C14.5524 8.08296 15.1164 8.33534 15.7398 8.33534C16.3631 8.33534 16.9271 8.08298 17.3359 7.67415C17.7447 7.26534 17.9971 6.70133 17.9971 6.078C17.9971 5.45468 17.7447 4.89066 17.3359 4.48185H17.3372ZM15.741 0L0.980792 7.78889V11.1289H30.5016V7.78889L15.741 0Z" fill="#2F2F2F"/>
</svg>
