<svg width="43" height="43" viewBox="0 0 43 43" fill="none" xmlns="http://www.w3.org/2000/svg">
<g opacity="0.6" filter="url(#filter0_d_1794_16544)">
<g opacity="0.4">
<path d="M21.5 35C31.165 35 39 27.165 39 17.5C39 7.83502 31.165 0 21.5 0C11.835 0 4 7.83502 4 17.5C4 27.165 11.835 35 21.5 35Z" fill="#EFEFEF"/>
<path d="M38.5 17.5C38.5 26.8888 30.8888 34.5 21.5 34.5C12.1112 34.5 4.5 26.8888 4.5 17.5C4.5 8.11116 12.1112 0.5 21.5 0.5C30.8888 0.5 38.5 8.11116 38.5 17.5Z" stroke="black" stroke-opacity="0.9"/>
</g>
<path d="M17.4479 27.6537L17.3168 27.4304C15.3151 24.0198 9.9957 16.7821 9.94197 16.7094L9.86523 16.6051L11.6775 14.8141L17.4142 18.8199C21.0262 14.1328 24.3959 10.9135 26.5939 9.03358C28.9984 6.97711 30.5636 6.03038 30.5794 6.02131L30.615 6H33.6891L33.3955 6.26151C25.8433 12.9882 17.6576 27.2851 17.5761 27.4287L17.4479 27.6537Z" fill="black" fill-opacity="0.9"/>
</g>
<defs>
<filter id="filter0_d_1794_16544" x="0" y="0" width="43" height="43" filterUnits="userSpaceOnUse" color-interpolation-filters="sRGB">
<feFlood flood-opacity="0" result="BackgroundImageFix"/>
<feColorMatrix in="SourceAlpha" type="matrix" values="0 0 0 0 0 0 0 0 0 0 0 0 0 0 0 0 0 0 127 0" result="hardAlpha"/>
<feOffset dy="4"/>
<feGaussianBlur stdDeviation="2"/>
<feComposite in2="hardAlpha" operator="out"/>
<feColorMatrix type="matrix" values="0 0 0 0 0 0 0 0 0 0 0 0 0 0 0 0 0 0 0.25 0"/>
<feBlend mode="normal" in2="BackgroundImageFix" result="effect1_dropShadow_1794_16544"/>
<feBlend mode="normal" in="SourceGraphic" in2="effect1_dropShadow_1794_16544" result="shape"/>
</filter>
</defs>
</svg>
