<svg width="267" height="56" viewBox="0 0 267 56" fill="none" xmlns="http://www.w3.org/2000/svg">
<path opacity="0.8" d="M4.18803 43.976C2.68403 43.976 1.93203 43.168 1.93203 41.552C1.93203 40.864 2.07603 40.016 2.36403 39.008C2.57203 38.336 2.88403 37.584 3.30003 36.752C3.70003 35.92 4.16403 35.056 4.69203 34.16C5.23603 33.264 5.80403 32.368 6.39603 31.472C7.00403 30.56 7.60403 29.688 8.19603 28.856C7.92403 28.952 7.62003 29.056 7.28403 29.168C6.94803 29.28 6.69203 29.336 6.51603 29.336C6.43603 29.304 6.38003 29.248 6.34803 29.168C6.33203 29.072 6.32403 28.984 6.32403 28.904C6.32403 28.696 6.37203 28.488 6.46803 28.28C6.58003 28.072 6.74003 27.96 6.94803 27.944C7.20403 27.912 7.52403 27.88 7.90803 27.848C8.29203 27.8 8.65203 27.76 8.98803 27.728L9.34803 27.248C9.65203 26.816 10.044 26.272 10.524 25.616C11.02 24.96 11.572 24.256 12.18 23.504C12.788 22.736 13.436 21.976 14.124 21.224C14.812 20.472 15.508 19.792 16.212 19.184C16.932 18.56 17.636 18.064 18.324 17.696C19.012 17.328 19.66 17.144 20.268 17.144C20.7 17.144 21.004 17.336 21.18 17.72C21.372 18.088 21.468 18.464 21.468 18.848C21.468 19.344 21.34 19.784 21.084 20.168C20.844 20.536 20.532 20.88 20.148 21.2C19.78 21.52 19.396 21.84 18.996 22.16C18.596 22.48 18.244 22.84 17.94 23.24C17.636 23.624 17.436 24.072 17.34 24.584C17.324 24.648 17.308 24.728 17.292 24.824C17.292 24.904 17.252 24.872 17.172 24.728C17.06 24.568 17.004 24.368 17.004 24.128C17.004 23.68 17.188 23.168 17.556 22.592C17.94 22.016 18.396 21.432 18.924 20.84C19.468 20.248 19.98 19.712 20.46 19.232C20.54 19.152 20.628 19.048 20.724 18.92C20.82 18.776 20.868 18.648 20.868 18.536C20.868 18.344 20.692 18.248 20.34 18.248C20.052 18.248 19.676 18.384 19.212 18.656C18.764 18.928 18.268 19.28 17.724 19.712C17.196 20.144 16.668 20.592 16.14 21.056C15.628 21.52 15.164 21.952 14.748 22.352C14.348 22.736 14.052 23.024 13.86 23.216C13.268 23.792 12.596 24.48 11.844 25.28C11.108 26.08 10.436 26.872 9.82803 27.656C10.132 27.64 10.476 27.616 10.86 27.584C11.244 27.536 11.62 27.496 11.988 27.464C12.372 27.432 12.684 27.416 12.924 27.416C12.972 27.416 13.052 27.424 13.164 27.44C13.276 27.456 13.332 27.496 13.332 27.56C13.332 27.624 13.252 27.672 13.092 27.704C12.932 27.72 12.836 27.736 12.804 27.752C12.484 27.8 12.164 27.856 11.844 27.92C11.524 27.984 11.204 28.048 10.884 28.112C10.74 28.144 10.492 28.208 10.14 28.304C9.80403 28.384 9.48403 28.464 9.18003 28.544C9.10003 28.672 9.02003 28.8 8.94003 28.928C8.86003 29.04 8.78803 29.16 8.72403 29.288C9.94003 29.256 10.82 29.576 11.364 30.248C11.908 30.92 12.18 31.8 12.18 32.888C12.18 33.64 12.06 34.448 11.82 35.312C11.548 36.336 11.156 37.36 10.644 38.384C10.132 39.408 9.53203 40.344 8.84403 41.192C8.15603 42.04 7.41203 42.712 6.61203 43.208C5.82803 43.72 5.02003 43.976 4.18803 43.976ZM4.54803 43.376C5.15603 43.376 5.73203 43.192 6.27603 42.824C6.83603 42.456 7.35603 41.976 7.83603 41.384C8.33203 40.792 8.77203 40.136 9.15603 39.416C9.55603 38.696 9.90003 37.976 10.188 37.256C10.476 36.552 10.692 35.912 10.836 35.336C10.932 34.952 11.004 34.576 11.052 34.208C11.116 33.84 11.148 33.488 11.148 33.152C11.148 32.256 10.948 31.496 10.548 30.872C10.148 30.248 9.49203 29.912 8.58003 29.864C8.43603 30.056 8.22003 30.376 7.93203 30.824C7.64403 31.256 7.31603 31.76 6.94803 32.336C6.59603 32.912 6.24403 33.496 5.89203 34.088C5.54003 34.68 5.22003 35.232 4.93203 35.744C4.64403 36.272 4.42003 36.704 4.26003 37.04C4.14803 37.296 3.98803 37.68 3.78003 38.192C3.55603 38.704 3.36403 39.264 3.20403 39.872C3.02803 40.48 2.94003 41.048 2.94003 41.576C2.94003 42.088 3.06003 42.512 3.30003 42.848C3.54003 43.2 3.95603 43.376 4.54803 43.376ZM16.6804 35.288C16.4244 35.288 16.1524 35.16 15.8644 34.904C15.5924 34.632 15.4564 34.368 15.4564 34.112C15.4564 33.792 15.5684 33.432 15.7924 33.032C16.0164 32.616 16.2804 32.216 16.5844 31.832C16.8884 31.448 17.1524 31.12 17.3764 30.848C17.6004 30.56 17.7124 30.368 17.7124 30.272V30.224C17.5684 30.096 17.4324 29.976 17.3044 29.864C17.1764 29.736 17.0004 29.672 16.7764 29.672C16.6164 29.672 16.4084 29.768 16.1524 29.96C15.9124 30.152 15.6644 30.376 15.4084 30.632C15.1524 30.888 14.9204 31.128 14.7124 31.352C14.5044 31.576 14.3524 31.728 14.2564 31.808C14.1924 31.872 14.1284 31.912 14.0644 31.928C14.0164 31.944 13.9764 31.952 13.9444 31.952C13.8804 31.952 13.8484 31.92 13.8484 31.856C13.8484 31.792 13.8804 31.728 13.9444 31.664C14.2004 31.328 14.4964 30.984 14.8324 30.632C15.1684 30.28 15.4724 29.96 15.7444 29.672C16.0164 29.368 16.1764 29.152 16.2244 29.024C16.3524 28.656 16.4804 28.328 16.6084 28.04C16.7524 27.752 16.9764 27.48 17.2804 27.224C17.4084 27.096 17.5604 26.992 17.7364 26.912C17.9124 26.832 18.0884 26.792 18.2644 26.792C18.4244 26.792 18.5524 26.84 18.6484 26.936C18.7604 27.016 18.8164 27.144 18.8164 27.32C18.8164 27.512 18.7284 27.704 18.5524 27.896C18.3924 28.088 18.2004 28.272 17.9764 28.448C17.7524 28.608 17.5524 28.752 17.3764 28.88C17.2164 29.008 17.1444 29.112 17.1604 29.192C17.2564 29.256 17.4404 29.336 17.7124 29.432C18.0004 29.528 18.2004 29.576 18.3124 29.576C18.4404 29.576 18.5604 29.552 18.6724 29.504C18.7844 29.456 18.8964 29.432 19.0084 29.432C19.1684 29.432 19.3284 29.48 19.4884 29.576C19.6484 29.672 19.7284 29.816 19.7284 30.008C19.7284 30.168 19.6644 30.32 19.5364 30.464C19.4244 30.592 19.3044 30.704 19.1764 30.8C18.9844 30.944 18.7284 31.16 18.4084 31.448C18.0884 31.736 17.7604 32.056 17.4244 32.408C17.1044 32.76 16.8244 33.112 16.5844 33.464C16.3604 33.8 16.2484 34.096 16.2484 34.352C16.2484 34.416 16.2644 34.48 16.2964 34.544C16.3124 34.56 16.3444 34.568 16.3924 34.568C16.7124 34.568 17.0724 34.424 17.4724 34.136C17.8724 33.848 18.2724 33.496 18.6724 33.08C19.0884 32.664 19.4724 32.256 19.8244 31.856C20.1924 31.44 20.5044 31.12 20.7604 30.896C20.7924 30.864 20.8324 30.832 20.8804 30.8C20.9284 30.768 20.9764 30.752 21.0244 30.752C21.1044 30.752 21.1444 30.808 21.1444 30.92C21.1444 30.984 21.0324 31.144 20.8084 31.4C20.6004 31.656 20.3284 31.96 19.9924 32.312C19.6564 32.664 19.3044 33.024 18.9364 33.392C18.5844 33.76 18.2564 34.088 17.9524 34.376C17.6484 34.648 17.4324 34.84 17.3044 34.952C17.1284 35.096 17.0004 35.184 16.9204 35.216C16.8404 35.264 16.7604 35.288 16.6804 35.288ZM21.237 35.264C20.773 35.264 20.429 35.08 20.205 34.712C19.981 34.328 19.869 33.936 19.869 33.536C19.869 32.992 20.013 32.408 20.301 31.784C20.589 31.144 20.933 30.536 21.333 29.96C21.749 29.384 22.117 28.912 22.437 28.544C22.517 28.448 22.621 28.4 22.749 28.4C22.893 28.4 23.037 28.456 23.181 28.568C23.517 28.328 23.901 28.112 24.333 27.92C24.781 27.728 25.213 27.632 25.629 27.632C26.349 27.632 26.709 28 26.709 28.736C26.709 29.44 26.533 30.088 26.181 30.68C25.845 31.272 25.469 31.848 25.053 32.408C24.941 32.552 24.829 32.688 24.717 32.816C24.621 32.944 24.509 33.072 24.381 33.2C25.085 33.008 25.701 32.688 26.229 32.24C26.757 31.792 27.277 31.328 27.789 30.848C27.853 30.784 27.909 30.736 27.957 30.704C28.021 30.656 28.101 30.632 28.197 30.632C28.277 30.632 28.317 30.688 28.317 30.8C28.317 30.816 28.293 30.856 28.245 30.92C28.197 30.984 28.165 31.032 28.149 31.064C27.621 31.704 26.965 32.304 26.181 32.864C25.413 33.408 24.605 33.744 23.757 33.872C23.453 34.176 23.069 34.488 22.605 34.808C22.141 35.112 21.685 35.264 21.237 35.264ZM23.109 33.368C23.173 33.368 23.229 33.368 23.277 33.368C23.341 33.368 23.405 33.36 23.469 33.344C23.789 32.96 24.117 32.504 24.453 31.976C24.805 31.448 25.101 30.904 25.341 30.344C25.581 29.768 25.701 29.248 25.701 28.784C25.701 28.496 25.565 28.352 25.293 28.352C25.021 28.352 24.709 28.432 24.357 28.592C24.005 28.752 23.709 28.92 23.469 29.096V29.168C23.469 29.328 23.341 29.56 23.085 29.864C22.845 30.152 22.581 30.448 22.293 30.752C22.021 31.056 21.821 31.312 21.693 31.52C21.645 32.048 21.749 32.488 22.005 32.84C22.261 33.192 22.629 33.368 23.109 33.368ZM21.261 34.856C21.565 34.856 21.861 34.744 22.149 34.52C22.453 34.296 22.709 34.088 22.917 33.896C22.533 33.864 22.181 33.736 21.861 33.512C21.557 33.272 21.277 33.008 21.021 32.72C20.973 32.816 20.909 33 20.829 33.272C20.749 33.544 20.709 33.816 20.709 34.088C20.709 34.296 20.749 34.48 20.829 34.64C20.909 34.784 21.053 34.856 21.261 34.856ZM36.5243 35.288C36.3483 35.288 36.1403 35.216 35.9003 35.072C35.6603 34.944 35.4443 34.784 35.2523 34.592C35.0763 34.384 34.9883 34.176 34.9883 33.968C34.9883 33.696 35.1003 33.352 35.3243 32.936C35.5483 32.52 35.8203 32.088 36.1403 31.64C36.4763 31.192 36.7963 30.776 37.1003 30.392C37.4203 29.992 37.6763 29.672 37.8683 29.432C38.0923 29.144 38.1963 28.984 38.1803 28.952C38.1643 28.904 38.1563 28.856 38.1563 28.808C37.7083 29.032 37.2043 29.368 36.6443 29.816C36.0843 30.248 35.5483 30.704 35.0363 31.184C34.5243 31.664 34.1083 32.096 33.7883 32.48C33.5643 32.736 33.3483 33.008 33.1403 33.296C32.9483 33.568 32.7563 33.848 32.5643 34.136C32.4523 34.296 32.3083 34.464 32.1323 34.64C31.9723 34.816 31.7883 34.904 31.5803 34.904C31.4683 34.904 31.3643 34.864 31.2683 34.784C31.1883 34.704 31.1483 34.608 31.1483 34.496C31.1483 34.272 31.2923 33.936 31.5803 33.488C31.8843 33.024 32.1963 32.52 32.5163 31.976C32.7243 31.624 32.9483 31.264 33.1883 30.896C33.4443 30.512 33.6603 30.168 33.8363 29.864C34.0283 29.56 34.1243 29.352 34.1243 29.24H34.1003C34.0523 29.24 33.9403 29.28 33.7643 29.36C33.6043 29.44 33.5163 29.488 33.5003 29.504C32.7163 30.032 31.9643 30.688 31.2443 31.472C30.5403 32.256 29.8923 33 29.3003 33.704C29.1883 33.848 29.0683 34 28.9403 34.16C28.8123 34.304 28.6843 34.448 28.5563 34.592C28.4923 34.656 28.4043 34.712 28.2923 34.76C28.1803 34.792 28.0763 34.808 27.9803 34.808C27.8843 34.808 27.7483 34.776 27.5723 34.712C27.4123 34.648 27.3323 34.536 27.3323 34.376C27.3323 34.184 27.4203 33.904 27.5963 33.536C27.7723 33.168 27.9883 32.752 28.2443 32.288C28.5163 31.824 28.7963 31.368 29.0843 30.92C29.3883 30.456 29.6603 30.04 29.9003 29.672C30.1563 29.288 30.3403 29.008 30.4523 28.832C29.9563 29.264 29.5083 29.664 29.1083 30.032C28.7243 30.384 28.2843 30.864 27.7883 31.472C27.7563 31.504 27.6923 31.568 27.5963 31.664C27.5003 31.76 27.4043 31.816 27.3083 31.832C27.2763 31.832 27.2363 31.808 27.1883 31.76C27.1563 31.712 27.1483 31.672 27.1643 31.64C27.1803 31.56 27.2923 31.4 27.5003 31.16C27.7083 30.904 27.9643 30.616 28.2683 30.296C28.5723 29.976 28.8763 29.656 29.1803 29.336C29.4843 29.016 29.7483 28.736 29.9723 28.496C30.2123 28.256 30.3563 28.104 30.4043 28.04C30.7563 27.672 31.0683 27.376 31.3403 27.152C31.6283 26.928 31.9003 26.816 32.1563 26.816C32.3003 26.816 32.4683 26.88 32.6603 27.008C32.8523 27.136 32.9483 27.288 32.9483 27.464C32.9483 27.528 32.9323 27.568 32.9003 27.584C32.1803 28.176 31.5403 28.856 30.9803 29.624C30.4203 30.376 29.8923 31.128 29.3963 31.88C29.3803 31.896 29.3243 31.984 29.2283 32.144C29.1483 32.304 29.0523 32.48 28.9403 32.672C28.8283 32.864 28.7323 33.032 28.6523 33.176C28.5723 33.32 28.5403 33.384 28.5563 33.368C29.4043 32.568 30.2923 31.72 31.2203 30.824C32.1643 29.912 33.0763 29.088 33.9563 28.352C34.0843 28.24 34.2283 28.144 34.3883 28.064C34.5483 27.984 34.7163 27.944 34.8923 27.944C35.0843 27.944 35.2363 28.008 35.3483 28.136C35.4763 28.248 35.5403 28.4 35.5403 28.592C35.5403 28.8 35.4763 29.008 35.3483 29.216C35.2203 29.424 35.1003 29.616 34.9883 29.792C34.8283 30.08 34.6523 30.368 34.4603 30.656C34.2843 30.944 34.1563 31.176 34.0763 31.352C34.8123 30.696 35.5163 30.064 36.1883 29.456C36.8603 28.832 37.5403 28.296 38.2283 27.848C38.3883 27.736 38.5803 27.68 38.8043 27.68C38.9483 27.68 39.1323 27.704 39.3563 27.752C39.5963 27.8 39.8043 27.872 39.9803 27.968C40.1723 28.064 40.2683 28.2 40.2683 28.376C40.2683 28.472 40.2363 28.568 40.1723 28.664C40.1083 28.744 40.0363 28.816 39.9563 28.88L38.8283 29.84C38.6203 30.032 38.3643 30.304 38.0603 30.656C37.7723 30.992 37.4843 31.368 37.1963 31.784C36.9243 32.184 36.6923 32.6 36.5003 33.032C36.3243 33.464 36.2363 33.864 36.2363 34.232C36.2363 34.456 36.2923 34.568 36.4043 34.568C36.4683 34.568 36.5403 34.552 36.6203 34.52C36.7003 34.472 36.7883 34.424 36.8843 34.376C37.2203 34.184 37.5803 33.904 37.9643 33.536C38.3483 33.168 38.7243 32.776 39.0923 32.36C39.4763 31.944 39.8123 31.576 40.1003 31.256C40.3883 30.936 40.6043 30.736 40.7483 30.656C40.7803 30.624 40.8203 30.616 40.8683 30.632C40.9323 30.648 40.9643 30.68 40.9643 30.728C40.9643 30.792 40.9323 30.864 40.8683 30.944C40.8043 31.024 40.7563 31.088 40.7243 31.136C40.4523 31.456 40.1963 31.768 39.9563 32.072C39.7323 32.36 39.4763 32.664 39.1883 32.984C38.8523 33.368 38.4763 33.776 38.0603 34.208C37.6603 34.624 37.2363 34.96 36.7883 35.216C36.7243 35.264 36.6363 35.288 36.5243 35.288Z" fill="white"/>
<g filter="url(#filter0_d_5803_17388)">
<circle cx="82.7777" cy="35.2775" r="16.586" transform="rotate(-13 82.7777 35.2775)" fill="#2FD567"/>
<circle cx="82.7777" cy="35.2775" r="16.461" transform="rotate(-13 82.7777 35.2775)" stroke="black" stroke-opacity="0.5" stroke-width="0.25"/>
</g>
<g filter="url(#filter1_d_5803_17388)">
<circle cx="95.2767" cy="32.3918" r="16.586" transform="rotate(-13 95.2767 32.3918)" fill="#FF2828"/>
<circle cx="95.2767" cy="32.3918" r="16.461" transform="rotate(-13 95.2767 32.3918)" stroke="black" stroke-opacity="0.5" stroke-width="0.25"/>
</g>
<g filter="url(#filter2_d_5803_17388)">
<ellipse cx="86.1367" cy="21.3355" rx="16.5846" ry="16.586" transform="rotate(-13 86.1367 21.3355)" fill="white"/>
<path d="M102.174 17.6329C104.219 26.4911 98.697 35.3297 89.8396 37.3746C80.9822 39.4195 72.144 33.8963 70.0989 25.0381C68.0539 16.1799 73.5764 7.34124 82.4337 5.29635C91.2911 3.25146 100.129 8.77471 102.174 17.6329Z" stroke="black" stroke-opacity="0.5" stroke-width="0.25"/>
</g>
<path d="M122.728 36V19.328H127.112V20.608C128.307 19.5413 129.757 19.008 131.464 19.008C132.552 19.008 133.523 19.232 134.376 19.68C135.229 20.1067 135.933 20.7147 136.488 21.504C137.171 20.6933 137.971 20.0747 138.888 19.648C139.827 19.2213 140.861 19.008 141.992 19.008C143.251 19.008 144.349 19.296 145.288 19.872C146.248 20.4267 146.995 21.2053 147.528 22.208C148.083 23.1893 148.36 24.3413 148.36 25.664V36H144.008V26.304C144.008 25.216 143.72 24.3627 143.144 23.744C142.568 23.104 141.8 22.784 140.84 22.784C140.179 22.784 139.571 22.9227 139.016 23.2C138.483 23.4773 138.024 23.8933 137.64 24.448C137.661 24.64 137.683 24.832 137.704 25.024C137.725 25.216 137.736 25.4293 137.736 25.664V36H133.352V26.304C133.352 25.216 133.064 24.3627 132.488 23.744C131.933 23.104 131.176 22.784 130.216 22.784C129.555 22.784 128.957 22.912 128.424 23.168C127.912 23.424 127.475 23.808 127.112 24.32V36H122.728ZM153.016 42.88C152.632 42.88 152.259 42.8587 151.896 42.816C151.555 42.7947 151.267 42.7627 151.032 42.72V38.944C151.459 39.0293 151.971 39.072 152.568 39.072C154.168 39.072 155.278 38.3147 155.896 36.8L156.152 36.16L149.656 19.328H154.488L158.648 30.688L163.352 19.328H168.088L160.408 37.344C159.832 38.688 159.203 39.7653 158.52 40.576C157.838 41.3867 157.048 41.9733 156.152 42.336C155.278 42.6987 154.232 42.88 153.016 42.88ZM175.229 36L168.349 20.256H169.885L175.901 34.208L181.885 20.256H183.357L176.509 36H175.229ZM192.249 36.32C190.798 36.32 189.475 35.9573 188.281 35.232C187.086 34.5067 186.137 33.5253 185.433 32.288C184.75 31.0507 184.409 29.664 184.409 28.128C184.409 26.592 184.739 25.2053 185.401 23.968C186.083 22.7307 187.011 21.7493 188.185 21.024C189.358 20.2987 190.67 19.936 192.121 19.936C193.486 19.936 194.702 20.2987 195.769 21.024C196.835 21.7493 197.678 22.72 198.297 23.936C198.937 25.1307 199.257 26.464 199.257 27.936V28.512H185.849C185.913 29.728 186.233 30.8267 186.809 31.808C187.385 32.768 188.142 33.536 189.081 34.112C190.041 34.688 191.097 34.976 192.249 34.976C193.145 34.976 194.03 34.8373 194.905 34.56C195.779 34.2613 196.526 33.8667 197.145 33.376L197.977 34.496C197.123 35.1147 196.217 35.5733 195.257 35.872C194.297 36.1707 193.294 36.32 192.249 36.32ZM185.913 27.168H197.753C197.646 26.08 197.337 25.0987 196.825 24.224C196.313 23.328 195.651 22.6133 194.841 22.08C194.03 21.5467 193.113 21.28 192.089 21.28C191.001 21.28 190.009 21.536 189.113 22.048C188.238 22.56 187.513 23.264 186.937 24.16C186.382 25.0347 186.041 26.0373 185.913 27.168ZM202.739 35.968V20.224H204.147V22.72C204.595 21.8453 205.203 21.1627 205.971 20.672C206.761 20.16 207.646 19.904 208.627 19.904C209.054 19.904 209.513 19.9467 210.003 20.032V21.472C209.769 21.3867 209.534 21.3333 209.299 21.312C209.065 21.2693 208.841 21.248 208.627 21.248C207.582 21.248 206.675 21.568 205.907 22.208C205.161 22.8267 204.574 23.7333 204.147 24.928V35.968H202.739ZM216.906 36.32C215.69 36.32 214.527 36.1067 213.418 35.68C212.33 35.232 211.413 34.592 210.666 33.76L211.754 32.864C212.394 33.5253 213.162 34.048 214.058 34.432C214.975 34.816 215.925 35.008 216.906 35.008C218.357 35.008 219.519 34.6987 220.394 34.08C221.29 33.44 221.738 32.6187 221.738 31.616C221.738 30.8693 221.471 30.2507 220.938 29.76C220.405 29.2693 219.541 28.9493 218.346 28.8L215.754 28.48C214.261 28.3093 213.119 27.872 212.33 27.168C211.562 26.464 211.178 25.5253 211.178 24.352C211.178 23.4773 211.413 22.7093 211.882 22.048C212.351 21.3867 213.002 20.8747 213.834 20.512C214.687 20.128 215.669 19.936 216.778 19.936C217.845 19.936 218.869 20.096 219.85 20.416C220.831 20.736 221.823 21.2587 222.826 21.984L221.994 23.136C221.098 22.496 220.234 22.0267 219.402 21.728C218.591 21.408 217.727 21.248 216.81 21.248C215.573 21.248 214.559 21.5147 213.77 22.048C212.981 22.56 212.586 23.328 212.586 24.352C212.586 25.12 212.842 25.7387 213.354 26.208C213.887 26.6773 214.741 26.9867 215.914 27.136L218.474 27.456C220.053 27.648 221.226 28.1067 221.994 28.832C222.762 29.5573 223.146 30.4853 223.146 31.616C223.146 32.512 222.879 33.3227 222.346 34.048C221.813 34.752 221.077 35.3067 220.138 35.712C219.221 36.1173 218.143 36.32 216.906 36.32ZM233.061 36.32C231.611 36.32 230.288 35.9573 229.093 35.232C227.899 34.5067 226.949 33.5253 226.245 32.288C225.563 31.0507 225.221 29.664 225.221 28.128C225.221 26.592 225.552 25.2053 226.213 23.968C226.896 22.7307 227.824 21.7493 228.997 21.024C230.171 20.2987 231.483 19.936 232.933 19.936C234.299 19.936 235.515 20.2987 236.581 21.024C237.648 21.7493 238.491 22.72 239.109 23.936C239.749 25.1307 240.069 26.464 240.069 27.936V28.512H226.661C226.725 29.728 227.045 30.8267 227.621 31.808C228.197 32.768 228.955 33.536 229.893 34.112C230.853 34.688 231.909 34.976 233.061 34.976C233.957 34.976 234.843 34.8373 235.717 34.56C236.592 34.2613 237.339 33.8667 237.957 33.376L238.789 34.496C237.936 35.1147 237.029 35.5733 236.069 35.872C235.109 36.1707 234.107 36.32 233.061 36.32ZM226.725 27.168H238.565C238.459 26.08 238.149 25.0987 237.637 24.224C237.125 23.328 236.464 22.6133 235.653 22.08C234.843 21.5467 233.925 21.28 232.901 21.28C231.813 21.28 230.821 21.536 229.925 22.048C229.051 22.56 228.325 23.264 227.749 24.16C227.195 25.0347 226.853 26.0373 226.725 27.168Z" fill="white"/>
<path opacity="0.75" d="M244.57 36.06C244.442 36.06 244.334 36.016 244.246 35.928C244.158 35.84 244.114 35.732 244.114 35.604C244.114 35.476 244.158 35.368 244.246 35.28C244.334 35.192 244.442 35.148 244.57 35.148C244.698 35.148 244.806 35.192 244.894 35.28C244.982 35.368 245.026 35.476 245.026 35.604C245.026 35.732 244.982 35.84 244.894 35.928C244.806 36.016 244.698 36.06 244.57 36.06ZM249.07 36.12C248.526 36.12 248.03 35.984 247.582 35.712C247.134 35.44 246.778 35.072 246.514 34.608C246.258 34.144 246.13 33.624 246.13 33.048C246.13 32.472 246.258 31.952 246.514 31.488C246.778 31.024 247.134 30.656 247.582 30.384C248.03 30.112 248.526 29.976 249.07 29.976C249.47 29.976 249.87 30.056 250.27 30.216C250.678 30.376 251.034 30.596 251.338 30.876L250.978 31.308C250.722 31.052 250.426 30.852 250.09 30.708C249.762 30.556 249.422 30.48 249.07 30.48C248.622 30.48 248.214 30.596 247.846 30.828C247.486 31.052 247.198 31.36 246.982 31.752C246.774 32.136 246.67 32.568 246.67 33.048C246.67 33.528 246.774 33.964 246.982 34.356C247.198 34.74 247.486 35.048 247.846 35.28C248.214 35.504 248.622 35.616 249.07 35.616C249.422 35.616 249.762 35.54 250.09 35.388C250.426 35.236 250.722 35.036 250.978 34.788L251.338 35.22C251.034 35.5 250.678 35.72 250.27 35.88C249.87 36.04 249.47 36.12 249.07 36.12ZM252.453 36V27.6L252.981 27.468V36H252.453ZM256.841 36.12C256.401 36.12 256.009 36.028 255.665 35.844C255.329 35.652 255.065 35.388 254.873 35.052C254.681 34.708 254.585 34.312 254.585 33.864V30.096H255.113V33.72C255.113 34.304 255.277 34.768 255.605 35.112C255.933 35.456 256.385 35.628 256.961 35.628C257.361 35.628 257.721 35.532 258.041 35.34C258.361 35.148 258.613 34.88 258.797 34.536V30.096H259.325V36H258.797V35.184C258.333 35.808 257.681 36.12 256.841 36.12ZM260.961 36V27.6L261.489 27.468V30.804C262.025 30.252 262.701 29.976 263.517 29.976C264.069 29.968 264.565 30.104 265.005 30.384C265.453 30.656 265.805 31.024 266.061 31.488C266.325 31.952 266.457 32.472 266.457 33.048C266.457 33.616 266.325 34.136 266.061 34.608C265.805 35.072 265.453 35.44 265.005 35.712C264.565 35.984 264.069 36.12 263.517 36.12C263.141 36.12 262.777 36.048 262.425 35.904C262.081 35.752 261.769 35.552 261.489 35.304V36H260.961ZM263.517 35.616C263.965 35.616 264.369 35.504 264.729 35.28C265.097 35.048 265.385 34.74 265.593 34.356C265.809 33.964 265.917 33.528 265.917 33.048C265.917 32.568 265.809 32.136 265.593 31.752C265.385 31.36 265.097 31.052 264.729 30.828C264.369 30.596 263.965 30.48 263.517 30.48C263.077 30.48 262.677 30.572 262.317 30.756C261.965 30.932 261.689 31.168 261.489 31.464V34.632C261.697 34.912 261.981 35.148 262.341 35.34C262.701 35.524 263.093 35.616 263.517 35.616Z" fill="white"/>
<defs>
<filter id="filter0_d_5803_17388" x="64.1885" y="18.188" width="37.1787" height="37.1792" filterUnits="userSpaceOnUse" color-interpolation-filters="sRGB">
<feFlood flood-opacity="0" result="BackgroundImageFix"/>
<feColorMatrix in="SourceAlpha" type="matrix" values="0 0 0 0 0 0 0 0 0 0 0 0 0 0 0 0 0 0 127 0" result="hardAlpha"/>
<feOffset dy="1.5"/>
<feGaussianBlur stdDeviation="1"/>
<feComposite in2="hardAlpha" operator="out"/>
<feColorMatrix type="matrix" values="0 0 0 0 0 0 0 0 0 0 0 0 0 0 0 0 0 0 0.65 0"/>
<feBlend mode="normal" in2="BackgroundImageFix" result="effect1_dropShadow_5803_17388"/>
<feBlend mode="normal" in="SourceGraphic" in2="effect1_dropShadow_5803_17388" result="shape"/>
</filter>
<filter id="filter1_d_5803_17388" x="77.8875" y="15.8022" width="33.9787" height="33.6792" filterUnits="userSpaceOnUse" color-interpolation-filters="sRGB">
<feFlood flood-opacity="0" result="BackgroundImageFix"/>
<feColorMatrix in="SourceAlpha" type="matrix" values="0 0 0 0 0 0 0 0 0 0 0 0 0 0 0 0 0 0 127 0" result="hardAlpha"/>
<feOffset dx="-0.8" dy="0.5"/>
<feComposite in2="hardAlpha" operator="out"/>
<feColorMatrix type="matrix" values="0 0 0 0 0 0 0 0 0 0 0 0 0 0 0 0 0 0 1 0"/>
<feBlend mode="normal" in2="BackgroundImageFix" result="effect1_dropShadow_5803_17388"/>
<feBlend mode="normal" in="SourceGraphic" in2="effect1_dropShadow_5803_17388" result="shape"/>
</filter>
<filter id="filter2_d_5803_17388" x="69.5479" y="4.74609" width="33.9768" height="34.1792" filterUnits="userSpaceOnUse" color-interpolation-filters="sRGB">
<feFlood flood-opacity="0" result="BackgroundImageFix"/>
<feColorMatrix in="SourceAlpha" type="matrix" values="0 0 0 0 0 0 0 0 0 0 0 0 0 0 0 0 0 0 127 0" result="hardAlpha"/>
<feOffset dx="0.8" dy="1"/>
<feComposite in2="hardAlpha" operator="out"/>
<feColorMatrix type="matrix" values="0 0 0 0 0 0 0 0 0 0 0 0 0 0 0 0 0 0 1 0"/>
<feBlend mode="normal" in2="BackgroundImageFix" result="effect1_dropShadow_5803_17388"/>
<feBlend mode="normal" in="SourceGraphic" in2="effect1_dropShadow_5803_17388" result="shape"/>
</filter>
</defs>
</svg>
