<svg width="224" height="224" viewBox="0 0 224 224" fill="none" xmlns="http://www.w3.org/2000/svg">
<path d="M72.0845 7.87426C72.0408 7.93242 72.07 8.22325 72.1283 8.49953C72.1866 8.76127 72.2595 10.3608 72.2741 12.0331C72.3033 14.4324 72.347 15.1158 72.522 15.2758C72.624 15.3921 72.799 15.4357 72.8865 15.3921C72.974 15.3339 74.3009 15.2903 75.8319 15.3049C77.3776 15.3049 78.8357 15.2612 79.069 15.2031L79.5064 15.0722L79.4481 11.7422C79.419 9.51742 79.3461 8.35412 79.2294 8.23779C79.0253 8.03421 75.2195 7.8888 73.9655 8.04875C73.3385 8.12146 72.9886 8.09237 72.697 7.9615C72.2449 7.72884 72.1866 7.7143 72.0845 7.87426Z" fill="black"/>
<path d="M57.0803 8.00513C56.9199 8.16509 54.1495 8.20871 37.9496 8.28142C29.5361 8.32504 20.6998 8.36867 18.3377 8.38321C15.9755 8.39775 12.7384 8.35413 11.149 8.29596C9.12224 8.20871 8.20361 8.22325 8.07238 8.32504C7.82449 8.52862 7.79533 9.75009 7.99947 10.6371C8.10154 11.0733 8.17445 15.8429 8.21819 23.8261C8.24735 30.7041 8.27652 37.2767 8.2911 38.44C8.33484 47.0776 8.27652 57.4019 8.18903 57.809C8.1307 58.0999 8.18903 58.2307 8.42233 58.3616C8.58272 58.4488 8.78686 58.4779 8.87435 58.4343C8.991 58.3471 30.134 58.1726 34.0855 58.2162C35.4999 58.2307 43.9571 58.2453 48.5211 58.2307C49.9209 58.2307 52.5893 58.2453 54.4411 58.2743C57.022 58.3034 57.8677 58.2743 58.0573 58.1289C58.3051 57.9544 58.3197 57.6491 58.2322 53.6066C58.1885 51.2218 58.1447 46.4232 58.1593 42.9478C58.1739 39.4725 58.1739 36.4915 58.1739 36.3316C58.1302 34.9065 57.9552 26.9379 57.9698 26.6616C57.9698 26.458 57.9698 22.5028 57.9698 17.8641C57.9698 13.2255 57.9698 9.19752 57.9844 8.89215C57.9844 8.485 57.9114 8.3105 57.6344 8.13601C57.2261 7.87426 57.2115 7.85972 57.0803 8.00513ZM50.3875 15.3049C51.102 15.6829 51.2332 16.061 51.2915 17.8787C51.3207 18.8384 51.3353 19.8417 51.3207 20.118C51.2623 22.212 51.2915 46.0306 51.3644 48.11C51.4519 50.3203 51.4227 50.771 51.2478 51.0182C51.029 51.2945 50.8395 51.3091 45.4298 51.3236C40.9242 51.3382 31.7233 51.3527 30.7318 51.3527C29.6382 51.3382 22.6537 51.3818 21.6914 51.3963C16.5296 51.4836 16.2234 51.4836 15.8297 51.28C14.9256 50.8292 14.911 50.7856 14.9548 45.129C14.9548 43.4132 14.9694 41.5082 14.9548 40.9121C14.9548 40.3159 14.9548 38.7745 14.9694 37.4949C14.9839 34.9792 14.9256 32.8998 14.8235 32.6817C14.7798 32.609 14.7798 32.2891 14.7944 31.9692C14.8235 31.6493 14.8381 31.1549 14.8381 30.8786C14.8381 30.6023 14.8381 28.9446 14.8381 27.1996C14.8381 25.1638 14.7798 23.9133 14.6777 23.7243C14.5611 23.5061 14.5611 23.4044 14.6923 23.3171C14.8965 23.2008 15.0277 21.9211 14.8819 21.6594C14.8235 21.5722 14.7652 20.3216 14.7361 18.882C14.6923 15.6393 14.7798 15.3776 15.9317 15.2467C16.3254 15.1885 22.9016 15.174 30.5131 15.2031C38.1391 15.2322 44.5695 15.2176 44.8028 15.1594C45.5173 15.014 50.0521 15.1304 50.3875 15.3049Z" fill="black"/>
<path d="M22.5952 22.474C22.5223 22.663 22.4931 23.4337 22.5077 24.1898C22.6535 28.8867 22.6535 39.6908 22.5223 41.5958C22.4056 43.2098 22.4056 43.8496 22.5369 43.9951C22.6972 44.1986 22.2452 44.1986 35.1789 44.1259C37.7452 44.1114 40.6323 44.1696 41.5947 44.2277C44.1173 44.4168 43.9423 44.7803 43.7381 39.938C43.6361 37.8005 43.5777 35.5466 43.6069 34.9504C43.6215 34.3542 43.6215 32.2893 43.6069 30.3699C43.5777 27.0836 43.6361 23.1283 43.709 22.8084C43.8256 22.3431 43.709 22.3286 41.1427 22.3867C39.7283 22.4158 38.518 22.474 38.4597 22.5176C38.2118 22.6775 35.835 22.6339 35.6455 22.4594C35.4413 22.2995 34.9602 22.3722 34.9602 22.5758C34.9602 22.6194 33.0063 22.6485 30.6295 22.6339C23.5575 22.5758 23.1493 22.5612 22.916 22.3431C22.741 22.1686 22.6972 22.1831 22.5952 22.474Z" fill="black"/>
<path d="M121.356 8.04902C121.035 8.12173 119.198 8.17989 117.273 8.19443C113.03 8.22351 107.678 8.31076 107.489 8.35439C107.416 8.36893 106.993 8.35439 106.556 8.29622C105.272 8.15081 94.1031 8.03448 93.9135 8.16535C93.7677 8.2526 93.7531 8.63067 93.8698 9.86668C93.9572 10.7392 94.0302 11.7425 94.0302 12.106C94.0156 18.0389 94.1322 22.0523 94.3218 22.1541C94.4384 22.2268 94.5988 22.2122 94.7009 22.125C94.8175 22.0377 95.9695 21.9796 97.8359 21.9941C100.679 22.0086 100.796 22.0232 101.131 22.3431L101.496 22.663L101.408 25.8912C101.365 27.7961 101.379 29.163 101.467 29.2066C101.54 29.2648 102.866 29.3229 104.397 29.352C105.943 29.3956 107.46 29.4538 107.751 29.512L108.291 29.5992L108.232 28.8867C107.985 26.0802 108.087 22.2122 108.437 22.1395C108.889 22.0377 112.767 21.9941 114.196 22.0668C115.377 22.125 115.523 22.1686 115.698 22.474C115.844 22.7357 115.888 23.5646 115.858 26.1965C115.815 29.2211 115.786 29.6137 115.567 29.7301C115.304 29.8755 109.093 29.7882 108.699 29.6428C108.407 29.5265 108.305 29.89 108.378 30.7334C108.407 31.097 108.437 32.5365 108.437 33.947C108.437 36.1573 108.48 36.5499 108.684 36.7681C108.845 36.928 109.034 36.9716 109.239 36.9135C109.413 36.8553 110.842 36.7826 112.417 36.739L115.29 36.6663L115.567 37.117C115.873 37.626 115.888 38.1204 115.669 41.872L115.552 43.9224L116.077 44.0969C116.369 44.1986 116.675 44.2277 116.762 44.1841C116.967 44.0532 128.311 43.9224 129.113 44.0387C130.134 44.1841 130.192 44.3731 130.221 47.8631L130.25 50.8731L130.688 50.9022C131.038 50.9167 136.826 50.9603 137.206 50.9458C137.264 50.9458 137.278 50.8586 137.249 50.7568C137.206 50.6695 137.162 45.8709 137.133 40.1125L137.089 29.6428H135.572C134.727 29.6283 133.123 29.5992 132 29.5701L129.959 29.512L129.988 29.8755C130.002 30.0645 130.032 30.9806 130.061 31.9258C130.104 33.0164 130.177 33.6998 130.309 33.8453C130.411 33.9761 130.44 34.1361 130.367 34.2524C130.309 34.3542 130.221 34.994 130.177 35.6775L130.104 36.9135L129.302 37.0734C128.603 37.2043 126.27 37.2043 123.849 37.0734C122.872 37.0153 122.595 36.6663 122.58 35.4739C122.537 32.8128 122.58 23.1865 122.653 21.9505C122.741 20.3219 122.945 19.8565 123.105 20.9471C123.149 21.3398 123.237 21.7324 123.295 21.8196C123.426 22.0232 136.01 22.2413 136.637 22.0523L137.045 21.9359L137.06 15.1306C137.06 10.8264 137.016 8.26714 136.928 8.17989C136.841 8.09264 135.354 8.01994 133.298 8.0054L129.813 7.97631L129.857 8.9215C129.886 9.44498 129.959 10.9427 130.017 12.266C130.09 13.5747 130.09 14.7962 130.032 14.9707C129.871 15.3633 129.011 15.4796 126.197 15.4796C125.103 15.4796 124.17 15.5378 124.126 15.5959C124.097 15.6687 123.907 15.6832 123.703 15.6541C123.368 15.5814 123.339 15.625 123.237 16.5848C123.178 17.1228 123.135 17.8353 123.135 18.1552C123.149 18.4751 123.12 19.0277 123.076 19.3912C123.018 19.9002 122.974 19.9729 122.887 19.7548C122.77 19.4494 122.376 14.4326 122.405 13.5747C122.42 13.2984 122.464 12.0042 122.522 10.7101C122.61 8.89241 122.595 8.29622 122.449 8.12173C122.245 7.88907 122.216 7.88907 121.356 8.04902Z" fill="black"/>
<path d="M215.288 7.9908C215.244 8.04896 214.647 8.10713 213.99 8.15075C211.672 8.25254 171.063 8.238 168.467 8.13621L165.857 8.01988L165.974 11.7715C166.032 13.8509 166.062 21.4851 166.062 28.7703C166.062 39.8944 166.076 47.6013 166.105 52.3999C166.12 52.9234 166.076 54.3484 166.018 55.5844C165.945 57.0967 165.959 57.8965 166.062 58.0128C166.178 58.1582 167.359 58.1873 171.705 58.1291C174.737 58.1001 179.958 58.071 183.326 58.071C186.694 58.071 191.185 58.071 193.314 58.0564C200.138 58.0419 206.539 58.0419 210.958 58.071C213.32 58.0855 215.376 58.0419 215.522 57.9983C215.769 57.8965 215.769 57.5475 215.682 51.4692C215.594 45.0274 215.594 37.0152 215.682 36.8552C215.711 36.8116 215.784 30.3844 215.828 22.5757C215.915 8.89236 215.915 8.38341 215.653 8.15075C215.507 8.01988 215.347 7.94717 215.288 7.9908ZM190.617 15.2178C191.098 15.2178 192.439 15.2033 193.606 15.2033C194.772 15.1887 195.822 15.1742 195.939 15.1742C196.055 15.1742 198.884 15.1596 202.223 15.1306L208.289 15.0724L208.741 15.465L209.193 15.8576V18.097C209.193 21.3252 209.047 40.2434 209.004 42.221C208.974 43.1371 208.96 45.5073 208.945 47.4704C208.916 50.2041 208.872 51.0475 208.741 51.0621C208.493 51.0912 199.847 51.2366 199.657 51.222C199.584 51.2075 193.752 51.1929 186.709 51.1639C179.666 51.1348 173.746 51.0766 173.556 51.033C173.367 50.9894 173.163 50.8003 173.104 50.6258C173.002 50.2914 172.915 16.0321 173.017 15.5668C173.061 15.4359 173.265 15.276 173.498 15.2033C173.731 15.1451 177.479 15.1306 181.839 15.1596C186.184 15.1887 190.135 15.2178 190.617 15.2178Z" fill="black"/>
<path d="M180.555 22.3138C180.453 22.4592 180.439 25.1348 180.468 34.9502C180.483 37.553 180.439 40.5631 180.351 41.6391C180.249 43.2823 180.249 43.6458 180.439 43.8349C180.614 44.0385 180.935 44.0675 182.713 44.0239C186.519 43.9367 199.409 43.9512 200.415 44.0385C201.232 44.1257 201.451 44.0966 201.611 43.9076C201.757 43.7331 201.786 43.0351 201.728 40.7376C201.64 36.8696 201.567 27.9267 201.611 24.9894C201.626 23.7097 201.64 22.5755 201.64 22.4592C201.626 22.2847 201.13 22.2702 198.607 22.3574C192.833 22.5319 182.116 22.4447 180.964 22.212C180.789 22.1829 180.599 22.2265 180.555 22.3138Z" fill="black"/>
<path d="M144.393 15.3194C144.378 15.363 144.408 16.2355 144.481 17.2824C144.641 19.929 144.641 22.0084 144.466 22.0084C144.393 22.0084 144.32 22.1102 144.32 22.2556C144.32 22.4737 144.028 22.4882 141.025 22.3864C139.202 22.3283 137.584 22.2265 137.438 22.1392C137.029 21.9211 136.942 22.0956 137.219 22.5755C137.438 22.9535 137.467 23.3316 137.394 25.8909C137.35 27.4759 137.292 28.9009 137.277 29.0609C137.248 29.3517 137.321 29.3517 140.383 29.3081L143.518 29.2645L144.014 29.7734L144.51 30.2824L144.495 33.0888C144.481 34.6302 144.422 36.0698 144.378 36.2879C144.32 36.6224 144.349 36.6951 144.641 36.7532C145.282 36.8841 149.351 36.9713 150.517 36.8696L151.684 36.7678L151.655 35.8953C151.64 35.4154 151.611 33.7723 151.582 32.26L151.538 29.4971L152.85 29.4244C153.579 29.3808 155.081 29.3953 156.204 29.439C157.327 29.4826 158.347 29.468 158.493 29.3953C158.712 29.2935 158.726 28.6828 158.683 22.3428C158.654 18.5185 158.624 15.3485 158.624 15.3048C158.61 15.2612 157.181 15.2467 155.446 15.2903C152.004 15.3775 150.838 15.3775 146.974 15.2903C145.574 15.2612 144.422 15.2757 144.393 15.3194Z" fill="black"/>
<path d="M86.9866 22.1831C86.7679 22.3576 86.7387 22.7938 86.7679 26.0075L86.797 29.6428L88.401 29.5701C91.3027 29.4537 92.8337 29.4974 93.0233 29.6864C93.1108 29.7736 93.3149 29.8609 93.4607 29.8609C93.6211 29.8609 93.7232 29.9627 93.7232 30.1226C93.7232 30.268 93.7961 30.4571 93.8982 30.5589C94.0731 30.7334 94.1169 31.7949 94.1752 39.2109C94.1898 41.9011 94.1606 44.1695 94.1023 44.2277C94.044 44.2858 89.9466 44.344 85.0035 44.344C80.0459 44.3585 75.5548 44.4313 74.9861 44.4894C74.4321 44.5621 73.6884 44.5912 73.3385 44.533C72.2303 44.3876 72.2157 44.3731 72.1719 40.825C72.1574 39.1091 72.1865 37.4951 72.2594 37.2479L72.3761 36.7971L75.8902 36.8262C78.5148 36.8552 79.4335 36.8116 79.521 36.6808C79.623 36.4917 79.623 33.7289 79.4918 31.2423C79.4189 29.9045 79.2585 29.3374 78.996 29.4974C78.9377 29.5264 77.5087 29.5992 75.8319 29.6428L72.7552 29.73L72.4344 29.3229C72.1136 28.9157 72.1136 28.8866 72.2011 25.6875C72.2886 22.692 72.274 22.4448 72.0407 22.314C71.7637 22.1831 65.5083 22.2413 65.275 22.3867C65.2021 22.4303 65.1729 23.5645 65.2312 25.0332C65.3625 28.843 65.4062 63.0732 65.2895 64.1783C65.1729 65.2253 65.3041 65.5016 65.8874 65.5307C66.0769 65.5307 69.2265 65.487 72.8719 65.4434C79.2439 65.3416 79.521 65.3416 79.8563 65.6179C80.2646 65.9378 80.2792 66.0396 80.3229 69.8058C80.3521 73.223 80.6875 72.9613 76.488 72.874C74.6945 72.8304 73.1489 72.8304 73.0614 72.8595C72.9156 72.9176 72.8719 73.7174 72.8719 76.233C72.8719 80.261 72.7552 80.0283 74.7674 79.8829C75.5257 79.8247 78.6315 79.7811 81.6644 79.7811C85.7909 79.7956 87.2053 79.752 87.2928 79.6211C87.3511 79.5339 87.3511 79.0104 87.2928 78.4724C87.1033 76.8874 87.1178 73.2521 87.3074 72.9031C87.4678 72.6123 87.5699 72.5977 90.734 72.6123C93.6065 72.6268 94.044 72.6559 94.321 72.8885C94.6418 73.1503 94.6564 73.3393 94.5252 78.0652C94.4814 79.6793 94.6564 80.0719 95.3126 79.8829C95.5604 79.8102 97.0186 79.7375 98.5788 79.7084C100.839 79.6793 101.451 79.7084 101.655 79.8684C101.874 80.0574 101.903 80.6245 101.874 86.7028C101.86 90.3526 101.903 93.5081 101.962 93.7262C102.064 94.1043 102.122 94.1334 102.895 94.1479C103.347 94.1479 104.863 94.1624 106.263 94.1915L108.815 94.2351V90.7016C108.815 88.2732 108.873 87.1099 108.975 87.0081C109.165 86.8191 110.769 86.7173 113.627 86.7318C115.595 86.7464 115.683 86.7609 116.033 87.0954L116.397 87.4589V90.9343V94.4242L115.595 94.4533C115.158 94.4678 113.481 94.4533 111.877 94.4387L108.961 94.3951V97.9286V101.477L112.329 101.433C114.764 101.389 115.799 101.419 116.033 101.549L116.368 101.724L116.251 104.807C116.135 108.5 116.047 108.326 117.841 108.297C118.497 108.282 123.119 108.267 128.135 108.253C135.324 108.224 137.307 108.18 137.54 108.035C137.817 107.846 137.832 107.7 137.803 104.763C137.788 102.902 137.715 101.608 137.628 101.491C137.526 101.375 137.146 101.331 136.417 101.375C135.834 101.404 134.405 101.462 133.239 101.491C132.072 101.535 130.41 101.593 129.52 101.637C128.646 101.666 126.94 101.651 125.744 101.608L123.586 101.506L123.353 100.982C123.163 100.532 123.134 99.4991 123.119 93.9879C123.105 90.4253 123.148 87.3426 123.221 87.139C123.338 86.7609 123.382 86.7609 124.898 86.6591C125.86 86.601 126.881 86.63 127.523 86.7173C128.179 86.8191 128.646 86.8336 128.806 86.7464C128.966 86.6591 129.229 86.6591 129.535 86.7609C130.279 86.9936 130.366 87.4444 130.279 90.6871C130.249 92.2284 130.206 93.5372 130.177 93.6244C130.089 93.9443 130.191 94.1043 130.599 94.2788C130.847 94.366 131.095 94.4096 131.183 94.366C131.27 94.3079 133.982 94.2351 137.205 94.1915C140.442 94.1479 144.889 94.0752 147.091 94.0461C149.293 94.0025 151.305 94.017 151.553 94.0606C151.83 94.1043 152.063 94.2642 152.151 94.4678C152.326 94.8459 152.253 104.138 152.063 106.13C151.961 107.191 151.976 107.497 152.151 107.788L152.369 108.137L155.49 108.02L158.61 107.918L159.048 108.384L159.5 108.864L159.471 110.885C159.456 111.99 159.383 112.935 159.31 112.979C159.135 113.095 159.31 115.116 159.529 115.291C159.645 115.393 161.322 115.422 164.734 115.349C171.179 115.218 173.294 115.262 173.512 115.48C173.687 115.654 173.716 116.716 173.658 120.715C173.644 122.198 173.687 122.431 174.023 122.547C174.139 122.591 174.97 122.576 175.86 122.489C176.764 122.416 178.222 122.343 179.126 122.343C181.007 122.343 180.949 122.285 180.92 123.899C180.92 124.452 180.92 126.43 180.905 128.305C180.905 130.181 180.861 132.77 180.788 134.049C180.686 136.07 180.701 136.405 180.905 136.638C181.109 136.885 181.343 136.899 183.836 136.827C187.204 136.739 187.744 136.797 187.933 137.292C188.123 137.786 188.342 143.748 188.181 143.966C188.094 144.068 187.729 144.112 187.146 144.083C186.65 144.054 185.163 143.981 183.851 143.937C182.538 143.894 181.401 143.821 181.328 143.777C181.255 143.734 181.124 143.763 181.022 143.835C180.891 143.952 180.876 144.563 180.963 146.366C181.022 147.66 181.051 149.288 181.036 149.972L180.993 151.208L180.409 151.31C179.33 151.499 174.314 151.441 173.95 151.222C173.629 151.048 173.614 150.961 173.629 149.666C173.629 148.91 173.687 147.384 173.746 146.264C173.804 145.144 173.804 144.17 173.746 144.097C173.629 143.952 167.388 143.835 166.834 143.966C166.528 144.024 166.528 144.083 166.542 147.733L166.557 151.441L163.787 151.455C162.27 151.455 159.135 151.455 156.831 151.441L152.632 151.426L152.413 151.077C152.194 150.757 152.18 149.579 152.165 140.244V129.759L149.001 129.861C147.251 129.905 145.662 129.905 145.472 129.861C145.108 129.774 145.093 129.716 144.933 127.753C144.845 126.633 144.802 125.383 144.831 124.946C144.977 123.172 145.02 115.873 144.889 115.64C144.773 115.407 144.452 115.378 141.55 115.393C139.8 115.393 138.298 115.349 138.225 115.305C137.817 115.058 137.773 115.785 137.788 122.445C137.788 126.211 137.759 129.367 137.701 129.44C137.569 129.658 138.211 130.225 138.488 130.108C138.605 130.065 139.961 130.007 141.477 129.978L144.248 129.919L144.627 130.283L145.02 130.661L145.035 133.657C145.035 135.314 145.079 138.382 145.137 140.476L145.239 144.272L144.16 144.373C143.562 144.417 142.031 144.475 140.763 144.49C138.473 144.533 138.43 144.533 138.007 144.17L137.569 143.806L137.657 141.989C137.715 140.971 137.788 139.488 137.846 138.688C137.948 137.248 137.934 137.205 137.613 137.03C137.365 136.899 136.811 136.87 135.659 136.943C134.77 136.986 133.268 137.03 132.305 137.03H130.585L130.672 141.785C130.716 144.417 130.76 149.158 130.76 152.357C130.774 155.919 130.818 158.26 130.92 158.42C131.051 158.682 131.241 158.682 134.186 158.624C136.884 158.551 137.38 158.58 137.671 158.769L138.021 159.002L137.978 169.384C137.948 175.099 137.89 179.84 137.817 179.941C137.759 180.043 137.671 181.715 137.613 183.649C137.569 185.598 137.467 187.241 137.409 187.299C137.351 187.357 135.09 187.416 132.393 187.445C128.048 187.474 124.548 187.561 124.125 187.634C123.819 187.706 123.6 187.619 123.323 187.343C123.061 187.081 123.032 186.863 123.046 184.609C123.046 183.271 123.119 181.657 123.192 181.018C123.28 180.378 123.352 178.298 123.367 176.393L123.396 172.918L122.303 173.02C121.705 173.078 120.626 173.107 119.897 173.093C118.337 173.034 117.651 173.034 116.762 173.093C116.397 173.107 114.604 173.078 112.752 173.02C110.025 172.933 109.354 172.962 109.179 173.122C108.99 173.282 108.975 173.805 109.034 176.728L109.107 180.145H110.346C111.031 180.13 112.489 180.101 113.583 180.072C115.362 180.014 115.61 180.029 115.843 180.261C116.076 180.494 116.106 180.843 116.106 183.926C116.106 186.369 116.062 187.372 115.931 187.503C115.741 187.692 115.231 187.706 107.794 187.59C105.155 187.547 102.749 187.474 102.457 187.416C101.787 187.285 101.393 187.619 101.524 188.215C101.568 188.419 101.641 191.385 101.67 194.788C101.699 198.801 101.772 201.084 101.874 201.274C101.991 201.492 101.976 201.593 101.845 201.71C101.568 201.928 100.095 202.131 99.6432 202.015C99.3078 201.928 96.7269 201.826 95.5459 201.87C95.3855 201.87 95.0355 201.812 94.773 201.724L94.2773 201.564L94.3356 197.958C94.3502 195.966 94.3356 194.308 94.2919 194.25C94.2335 194.206 93.6357 194.236 92.9795 194.323C92.3088 194.425 91.0548 194.497 90.1945 194.483C89.3196 194.483 88.6197 194.526 88.6197 194.599C88.6197 194.657 88.401 194.686 88.1531 194.643C87.5699 194.57 86.8262 193.916 86.9429 193.61C86.9866 193.494 87.0595 192.112 87.1033 190.557C87.1616 188.434 87.1324 187.706 87.0012 187.634C86.8991 187.561 85.4118 187.532 83.6766 187.561C80.7458 187.605 80.4979 187.59 80.1917 187.343L79.8417 187.052L79.8855 183.708C79.9292 181.25 79.8855 180.32 79.7688 180.247C79.6813 180.189 79.0543 180.189 78.3836 180.247C77.7129 180.29 76.3276 180.392 75.2778 180.45C74.2425 180.494 73.353 180.567 73.3239 180.596C73.2947 180.625 73.1781 180.479 73.0614 180.261C72.7698 179.709 72.7989 173.834 73.0906 173.427C73.3676 173.034 74.8112 172.962 78.092 173.18C80.4542 173.325 80.3083 173.587 80.2063 169.399C80.1625 167.552 80.1042 166.011 80.075 165.982C80.0459 165.953 78.6169 165.924 76.8963 165.909C72.7552 165.895 73.1052 166.214 73.0614 162.245C73.0468 160.587 73.0031 159.147 72.9593 159.031C72.8864 158.857 72.3178 158.828 69.3577 158.871L65.8436 158.915V162.23C65.8291 165.764 65.8291 165.778 66.529 165.836C66.6894 165.851 68.1475 165.865 69.766 165.88C71.3846 165.895 72.7406 165.938 72.7989 165.996C72.9593 166.156 73.3093 168.716 73.2218 169.137C73.1926 169.355 73.1343 170.213 73.1052 171.057C73.076 171.9 73.0468 172.656 73.0322 172.744C73.0031 173.151 71.8512 173.252 68.7599 173.151L65.6832 173.049L65.7707 173.543C65.8291 173.82 65.902 175.405 65.9457 177.077C66.0186 179.52 66.004 180.145 65.8436 180.232C65.6978 180.32 65.6395 181.018 65.6103 183.155C65.5958 184.696 65.5812 186.151 65.5958 186.398C65.6395 188.768 65.5812 198.685 65.4937 199.747C65.3479 201.855 65.1292 201.739 69.139 201.782C72.8573 201.826 72.9593 201.797 72.8135 200.852C72.7698 200.576 72.6969 197.522 72.6531 194.061L72.5802 187.765L72.9593 187.634C73.1635 187.547 74.7237 187.517 76.6338 187.547L79.9438 187.59L79.9584 194.497C79.9584 198.293 80.0167 201.506 80.0605 201.637C80.1479 201.855 80.425 201.87 82.7434 201.812C85.3243 201.724 91.1423 201.681 93.0233 201.724C94.4814 201.753 94.496 201.768 94.4668 205.331C94.4523 207.41 94.496 208.471 94.6564 209.155C94.8314 209.911 94.846 210.682 94.7585 213.008C94.7001 214.608 94.6856 216.004 94.7147 216.091C94.7585 216.222 95.2251 216.28 96.4062 216.28C97.2956 216.28 98.3163 216.353 98.6663 216.44C99.1037 216.542 99.3516 216.527 99.4828 216.426C99.6724 216.266 100.795 216.236 105.097 216.251C106.176 216.251 108.902 216.266 111.133 216.266C113.379 216.266 115.377 216.309 115.581 216.353C116.383 216.513 116.397 216.44 116.353 212.907C116.324 210.464 116.353 209.577 116.499 209.315L116.689 208.966L119.62 208.995C121.224 209.009 122.711 208.98 122.915 208.937L123.309 208.835L123.221 205.331C123.178 203.397 123.134 201.797 123.119 201.782C123.105 201.768 121.821 201.71 120.261 201.652C118.701 201.608 117.126 201.55 116.762 201.55L116.106 201.521L116.076 203.338C115.989 207.803 115.945 208.704 115.843 208.82C115.551 209.097 110.083 209.329 109.107 209.097C108.494 208.937 108.494 208.82 108.625 201.521C108.698 197.682 108.786 194.454 108.829 194.352C108.873 194.192 109.879 194.163 113.875 194.192C116.63 194.192 119.066 194.163 119.284 194.105C119.503 194.046 120.436 194.046 121.355 194.105C122.973 194.206 123.017 194.221 123.163 194.585C123.265 194.817 123.338 196.315 123.367 198.234L123.396 201.492L128.791 201.463C131.766 201.448 134.813 201.419 135.572 201.39C136.33 201.375 137.103 201.419 137.292 201.492C137.657 201.666 137.628 201.361 137.628 205.578C137.628 207.41 137.671 208.544 137.773 208.66C137.876 208.777 137.934 210.129 137.934 212.427C137.934 215.597 137.963 216.004 138.167 216.12C138.313 216.178 139.173 216.193 140.092 216.12C141.011 216.047 145.677 215.989 150.445 215.975L159.121 215.96L159.354 215.64C159.573 215.364 159.587 215.059 159.471 213.008C159.339 210.609 159.412 208.922 159.675 208.602C159.791 208.457 161.206 208.442 166.426 208.501L173.031 208.588L173.133 208.21C173.294 207.57 173.031 201.303 172.842 201.288C171.077 201.215 162.431 201.448 161.804 201.579C160.958 201.768 159.193 201.637 158.916 201.375C158.741 201.215 158.712 200.561 158.741 197.929C158.756 196.155 158.814 194.643 158.844 194.585C158.887 194.512 158.873 194.337 158.829 194.177C158.741 193.901 158.61 193.887 155.577 193.901C153.842 193.916 152.253 193.901 152.063 193.872C151.553 193.785 151.553 193.625 151.699 198.205C151.786 200.895 151.757 201.448 151.597 201.521C151.407 201.579 147.907 201.753 146.435 201.768C145.633 201.768 144.86 201.593 144.685 201.346C144.598 201.23 144.568 200.386 144.641 199.078C144.802 195.501 144.816 194.395 144.7 194.192C144.583 194.017 143.037 194.032 140.748 194.265C138.123 194.512 138.08 194.512 137.701 194.134C137.365 193.799 137.336 193.668 137.394 192.84C137.424 192.345 137.496 190.891 137.54 189.626L137.642 187.343H138.4C138.809 187.328 141.244 187.299 143.81 187.256C146.376 187.212 152.224 187.168 156.788 187.139C165.23 187.096 177.726 186.936 179.155 186.863C180.293 186.805 180.482 187.052 180.497 188.564C180.511 191.982 180.497 193.756 180.424 193.872C180.366 193.945 179.986 194.003 179.564 194.003C179.155 194.003 178.528 194.046 178.178 194.105C177.785 194.163 177.566 194.148 177.566 194.046C177.566 193.974 177.391 193.901 177.172 193.916C176.939 193.93 175.947 193.887 174.941 193.828L173.119 193.727L173.162 197.333C173.192 199.31 173.235 200.968 173.279 201.012C173.323 201.041 176.502 201.099 180.336 201.128C185.498 201.157 187.335 201.114 187.423 200.997C187.481 200.91 187.51 199.441 187.481 197.755C187.365 188.404 187.423 180.116 187.613 179.418C187.773 178.836 187.773 178.124 187.656 175.957C187.554 174.096 187.554 173.078 187.656 172.787L187.802 172.365L194.597 172.336C198.344 172.336 202.354 172.336 203.521 172.365C204.687 172.38 205.795 172.395 206 172.395C206.204 172.38 208.537 172.351 211.176 172.336L215.988 172.293L216.002 169.239C216.002 167.552 216.061 166.098 216.119 165.996C216.177 165.895 216.148 165.618 216.061 165.371C215.886 164.964 215.842 164.949 214.909 164.964C214.384 164.964 213.232 165.051 212.357 165.153C210.374 165.386 209.849 165.342 209.412 164.935L209.062 164.615L209.135 157.868C209.178 153.84 209.266 151.004 209.353 150.844C209.47 150.626 209.485 137.423 209.368 124.045L209.353 122.489H206.131H202.894L202.558 122.111C202.165 121.704 202.165 121.602 202.208 117.69C202.223 116.527 202.194 115.48 202.136 115.349C202.063 115.16 201.888 115.145 200.998 115.233C199.409 115.393 188.269 115.48 188.006 115.335C187.802 115.218 187.773 114.753 187.773 111.685C187.773 109.751 187.831 108.078 187.904 107.962C188.021 107.788 188.531 107.773 191.01 107.846C192.629 107.904 194.116 107.991 194.291 108.035C194.495 108.093 194.699 108.02 194.918 107.802C195.224 107.497 195.239 107.38 195.151 106.363C195.093 105.752 195.02 104.429 194.962 103.396C194.83 100.721 194.597 100.881 198.738 100.924C201.829 100.953 202.004 100.968 202.238 101.259C202.602 101.709 202.69 102.902 202.515 104.981C202.413 106.014 202.369 108.718 202.383 110.987L202.427 115.116L205.752 115.145C207.983 115.16 209.12 115.218 209.237 115.335C209.514 115.611 209.601 116.832 209.514 119.333C209.47 120.686 209.47 121.893 209.528 122.038C209.616 122.271 209.951 122.3 212.94 122.387C215.128 122.445 216.323 122.431 216.44 122.329C216.586 122.213 216.615 121.296 216.6 118.664L216.571 115.145L213.247 115.204C209.966 115.247 209.922 115.247 209.572 114.927L209.222 114.593L209.295 111.379C209.368 108.631 209.412 108.137 209.63 107.962C209.82 107.817 210.476 107.788 212.853 107.831C214.501 107.875 216.002 107.86 216.207 107.817C216.557 107.715 216.557 107.686 216.527 106.493C216.469 103.702 216.498 94.526 216.586 94.4096C216.629 94.3224 216.6 94.177 216.498 94.0606C216.338 93.8571 214.792 93.8716 213.611 94.0606C213.247 94.1333 210.505 94.177 209.397 94.1334C208.872 94.1188 208.858 93.7117 208.887 83.7363C208.916 77.5127 208.989 73.8192 209.076 73.5138C209.208 73.1357 209.193 72.9612 208.989 72.6704C208.755 72.3069 208.712 72.2924 207.706 72.3796C207.122 72.4378 205.664 72.5105 204.454 72.5541L202.252 72.6413L201.931 72.2342C201.698 71.9434 201.64 71.7252 201.698 71.4199C201.888 70.6056 201.902 65.5016 201.727 65.3707C201.625 65.298 201.159 65.2544 200.677 65.2834C199.744 65.3125 183.209 65.5161 182.086 65.5016C175.583 65.4434 167.942 65.3125 167.199 65.2689C166.528 65.2107 166.193 65.2544 166.09 65.3707C166.003 65.487 165.988 66.7376 166.047 68.7588C166.105 70.5183 166.105 72.0306 166.032 72.1179C165.711 72.525 166.338 72.5686 173.162 72.5105C178.951 72.4668 193.328 72.4378 194.232 72.4668C194.364 72.4668 194.597 72.5832 194.743 72.7141C194.976 72.9613 194.991 73.3539 194.889 78.4288C194.845 81.4243 194.757 84.4634 194.714 85.1614L194.641 86.441L195.107 86.6446C195.355 86.7464 195.618 86.8045 195.691 86.7609C195.749 86.7173 197.134 86.6591 198.753 86.6155C201.465 86.5428 201.713 86.5573 201.917 86.79C202.208 87.139 202.311 93.29 202.033 93.828L201.844 94.1624L194.787 94.177C187.962 94.1915 187.729 94.177 187.525 93.9007C187.335 93.668 187.321 93.2463 187.408 91.2978C187.613 86.9354 187.627 87.1972 187.335 86.9354C187.088 86.7173 186.781 86.7173 184.04 86.8627C181.138 87.0081 180.978 87.0081 180.628 86.7464C180.22 86.4265 180.22 86.4846 180.38 82.2967C180.424 81.0171 180.409 79.8683 180.336 79.7375C180.234 79.5339 179.797 79.5194 176.822 79.5339C174.81 79.563 173.41 79.6357 173.352 79.7084C173.308 79.7957 173.264 83.0529 173.264 86.9645V94.0606L176.851 94.017L180.453 93.9734L180.759 94.366C181.066 94.7586 181.08 94.8895 181.051 97.9432C181.022 100.27 180.963 101.157 180.832 101.273C180.686 101.389 176.691 101.36 174.066 101.2L173.702 101.186L173.76 104.458C173.789 106.261 173.862 107.802 173.935 107.875C174.008 107.977 174.46 107.991 175.189 107.933C175.816 107.875 177.245 107.817 178.383 107.817C181.27 107.802 181.051 107.482 181.051 111.801C181.051 114.302 181.007 115.233 180.876 115.32C180.599 115.509 174.533 115.407 174.066 115.218C173.542 115 173.483 114.666 173.483 111.19C173.483 109.125 173.439 108.369 173.308 108.282C173.206 108.224 171.69 108.166 169.955 108.166C167.242 108.166 166.747 108.137 166.557 107.933C166.338 107.729 166.324 107.017 166.324 101.68C166.324 97.3906 166.265 95.1367 166.12 93.8571C165.945 92.4466 165.915 90.6871 165.974 85.8884C166.018 82.5149 166.003 79.7375 165.945 79.7229C165.361 79.6793 151.844 79.6793 151.772 79.7375C151.669 79.8102 151.786 83.6345 151.961 85.8739L152.034 86.8336L151.567 87.0227C151.232 87.1535 150.197 87.1972 147.966 87.1681C144.991 87.1245 144.816 87.1099 144.495 86.8191C144.262 86.601 144.189 86.4119 144.248 86.2084C144.291 86.0484 144.364 82.9802 144.408 79.374C144.452 75.7823 144.51 72.8158 144.554 72.7722C144.583 72.7431 146.187 72.685 148.126 72.6704C150.051 72.6559 151.669 72.5977 151.713 72.5686C151.815 72.4668 151.742 67.0139 151.626 66.1414L151.538 65.4143L147.98 65.3998L144.437 65.3852L144.539 66.6067C144.67 68.1335 144.656 70.7801 144.539 71.8125C144.437 72.5832 144.423 72.6123 143.971 72.6268C143.723 72.6413 143.227 72.6704 142.862 72.7141C142.498 72.7577 141.915 72.7868 141.55 72.7722C141.186 72.7722 138.663 72.7722 135.936 72.7722C131.839 72.7722 130.92 72.7286 130.687 72.5541C130.41 72.3651 130.395 72.1469 130.352 69.0206C130.322 67.0429 130.366 65.6179 130.454 65.487C130.57 65.3125 131.606 65.2834 137.351 65.2689C141.069 65.2689 144.189 65.2107 144.291 65.138C144.452 65.0508 144.466 64.4401 144.393 62.1571C144.35 60.5866 144.364 57.5039 144.437 55.3081C144.525 52.5017 144.525 51.2511 144.408 51.1057C144.291 50.9603 143.971 50.9312 142.892 51.0039C140.879 51.1639 138.036 51.1202 137.817 50.9457C137.701 50.8294 137.613 50.8294 137.54 50.9457C137.424 51.1348 137.424 57.5911 137.54 57.7656C137.569 57.8383 137.511 58.0128 137.409 58.1582C137.219 58.42 137.001 58.4345 133.793 58.3909C131.314 58.3618 130.352 58.2891 130.206 58.1582C130.002 57.9546 129.914 55.09 130.031 52.618L130.104 51.1639L127.333 51.1348C125.817 51.1202 124.227 51.0766 123.805 51.033C123.309 50.9894 123.032 51.033 122.988 51.1348C122.842 51.5274 123.075 64.9926 123.221 65.2689C123.309 65.4434 123.396 66.9121 123.411 68.9624C123.44 71.5653 123.498 72.3941 123.644 72.4814C123.746 72.5541 125.102 72.5977 126.662 72.5977C129.243 72.5832 129.52 72.6123 129.87 72.874L130.249 73.1503V76.4512L130.264 79.7375L129.812 79.7957C129.243 79.8829 125.059 80.0574 124.198 80.0283C123.761 80.0283 123.44 79.912 123.25 79.7229C122.915 79.3885 122.871 78.7051 123.032 75.3024C123.148 72.9322 123.09 72.685 122.463 72.8304C122.113 72.9031 117.957 72.9322 107.065 72.9322C104.586 72.9322 102.487 72.9176 102.399 72.9176C101.466 72.8304 100.037 72.8013 97.7185 72.7722C95.6917 72.7577 94.8751 72.6995 94.6856 72.5686C94.4523 72.3941 94.4231 72.0451 94.3502 69.4277C94.2773 66.0105 94.3356 65.7197 95.1522 65.5452C95.4438 65.487 96.8873 65.4289 98.3601 65.4289C100.562 65.4143 101.043 65.3707 101.16 65.1962C101.247 65.0653 101.276 64.1347 101.233 62.7969C101.174 61.59 101.116 53.6795 101.087 45.2019C101.072 36.7244 101.043 29.7736 101.028 29.7446C101.014 29.73 99.5703 29.7155 97.8206 29.7155C95.8375 29.7155 94.5835 29.6573 94.5252 29.5701C94.4814 29.4828 94.321 29.4247 94.1606 29.4247C93.9127 29.4247 93.8982 29.2356 93.8836 26.2256C93.869 24.1025 93.9127 23.0265 94.0148 23.0265C94.2627 23.0265 94.1752 22.6048 93.8982 22.4594C93.7524 22.3867 92.3817 22.2703 90.8652 22.2267C89.3488 22.1831 87.9052 22.1104 87.6719 22.0668C87.424 22.0377 87.1178 22.0958 86.9866 22.1831ZM79.2439 51.033C79.8272 51.1493 79.8855 51.5274 79.8709 54.901C79.8709 57.722 79.8272 58.1582 79.623 58.4054C79.3897 58.6526 79.171 58.6672 76.4443 58.609C73.1489 58.5363 72.5365 58.4054 72.3323 57.6784C72.1865 57.184 72.2303 51.3093 72.3615 51.0766C72.4198 50.9894 72.6386 50.9457 72.8719 50.9894C73.0906 51.0475 73.4551 51.0185 73.6884 50.9603C74.1113 50.844 78.6315 50.9021 79.2439 51.033ZM93.8982 51.1057C94.1315 51.2366 94.1606 51.4838 94.1606 53.316C94.1752 54.4502 94.1752 57.4748 94.1898 60.034C94.1898 62.6079 94.146 64.9054 94.0877 65.1671C94.0148 65.5161 93.9127 65.6324 93.6794 65.6324C93.3587 65.6324 88.8822 65.7779 88.4739 65.8069C87.7594 65.8506 87.1178 65.6906 86.8845 65.3998C86.6658 65.1235 86.6512 64.4546 86.6658 58.1582C86.6804 54.3339 86.7241 51.2075 86.7533 51.1784C87.1762 50.9021 87.8615 50.844 90.5882 50.9021C92.2651 50.9458 93.7524 51.033 93.8982 51.1057ZM137.292 79.9265C137.511 80.1592 137.54 80.5954 137.584 83.4891L137.628 86.8045L137.263 86.9936C136.971 87.1535 136.301 87.1826 133.939 87.0954C131.299 87.0081 130.949 86.9645 130.702 86.7173C130.439 86.4555 130.41 86.1938 130.41 83.1547C130.395 80.8135 130.439 79.8393 130.57 79.7666C130.658 79.7084 132.145 79.6648 133.88 79.6793C136.665 79.6793 137.059 79.7084 137.292 79.9265ZM196.099 122.402C199.453 122.416 202.223 122.46 202.267 122.503C202.311 122.547 202.354 128.974 202.369 136.783C202.383 147.849 202.354 151.033 202.208 151.193C202.048 151.397 202.077 156.777 202.281 163.655C202.34 165.429 202.121 166.622 201.815 166.229C201.727 166.127 201.625 165.865 201.581 165.662L201.479 165.284L196.055 165.313C193.066 165.342 190.106 165.386 189.479 165.415C188.517 165.473 188.283 165.444 187.992 165.211L187.642 164.949L187.656 158.115C187.656 153.796 187.715 151.237 187.802 151.193C187.89 151.135 189.581 151.106 191.579 151.121L195.209 151.15V144.199C195.209 140.375 195.253 137.088 195.311 136.899L195.399 136.55L191.827 136.652C188.444 136.754 188.24 136.754 188.137 136.492C188.065 136.347 187.962 133.249 187.904 129.614C187.788 121.747 187.729 122.111 189.114 122.271C189.61 122.329 192.745 122.387 196.099 122.402ZM139.13 146.569C139.611 147.049 139.29 147.514 138.692 147.194C138.182 146.933 138.255 146.409 138.809 146.351C138.867 146.337 139.013 146.438 139.13 146.569ZM151.757 151.6C152.019 151.877 152.034 152.211 152.078 156.355C152.122 162.492 152.122 163.742 152.063 164.659C152.019 165.095 152.005 168.657 152.005 172.584C152.019 176.495 152.019 179.854 152.019 180.043C152.019 180.305 151.961 180.363 151.772 180.276C151.64 180.218 151.013 180.174 150.372 180.189C145.779 180.276 145.4 180.247 145.166 179.665C145.035 179.345 144.875 173.093 144.933 171.202C144.947 170.999 144.933 166.578 144.918 161.372C144.889 154.858 144.918 151.804 145.035 151.6C145.181 151.324 145.341 151.31 148.33 151.31C151.305 151.31 151.495 151.324 151.757 151.6ZM165.536 158.406C168.351 158.391 172.812 158.362 175.481 158.348C178.149 158.319 180.409 158.362 180.511 158.42C180.657 158.522 180.701 160.064 180.716 166.069C180.73 170.213 180.759 174.91 180.774 176.524C180.803 179.534 180.759 179.985 180.424 180.116C180.307 180.16 179.637 180.116 178.922 180C177.989 179.854 176.312 179.825 172.681 179.854C164.647 179.941 159.952 180.043 159.806 180.13C159.718 180.174 159.514 180.101 159.354 179.956C159.033 179.709 159.033 179.636 159.062 176.073C159.077 174.067 159.077 172.336 159.077 172.22C159.077 172.104 159.077 169.006 159.062 165.327C159.048 160.238 159.077 158.609 159.223 158.449C159.354 158.289 159.543 158.26 159.923 158.319C160.2 158.377 162.737 158.406 165.536 158.406Z" fill="black"/>
<path d="M166.119 165.386C166.076 165.458 166.09 165.647 166.163 165.778C166.251 165.924 166.28 167.436 166.236 169.268C166.192 171.537 166.221 172.511 166.338 172.583C166.571 172.729 173.22 172.685 173.352 172.554C173.527 172.38 173.541 171.929 173.512 168.396L173.483 165.24H169.852C167.636 165.24 166.178 165.298 166.119 165.386Z" fill="black"/>
<path d="M151.758 51.0329C151.685 51.1057 151.627 52.7197 151.612 54.6101C151.612 57.3148 151.656 58.0709 151.816 58.2018C152.152 58.4781 158.043 58.3763 158.611 58.0709C158.903 57.911 158.903 57.8237 158.874 54.4065L158.83 50.9166L155.36 50.8875C153.07 50.873 151.831 50.9312 151.758 51.0329Z" fill="black"/>
<path d="M108.815 51.0912C108.538 51.193 108.523 51.3675 108.509 58.1583C108.494 62.5643 108.538 65.1962 108.64 65.298C108.742 65.4434 109.602 65.4871 112.023 65.4871C113.816 65.4871 115.362 65.458 115.478 65.4144C115.756 65.298 115.712 51.2366 115.42 51.0912C115.172 50.9458 109.194 50.9603 108.815 51.0912Z" fill="black"/>
<path d="M8.24782 65.734C8.17492 65.8358 8.14575 65.9812 8.1895 66.0539C8.46654 66.4901 8.64152 88.4475 8.39364 91.7192C8.23324 93.9441 8.23324 94.0313 8.51029 94.2349C8.71443 94.3803 9.02064 94.4094 9.66222 94.3512C11.587 94.1622 14.6053 94.2058 15.0865 94.4239C15.6114 94.6566 15.6406 94.802 15.801 98.1756C15.8885 100.4 15.801 101.331 15.4364 101.811C15.1885 102.145 15.1448 102.145 14.2845 101.985C13.0013 101.753 8.51029 101.549 8.40822 101.724C8.36447 101.796 8.36447 102.16 8.43738 102.538C8.49571 102.916 8.55403 104.69 8.58319 106.493C8.62694 110.114 8.62694 110.521 8.48113 113.284C8.40822 114.767 8.4228 115.262 8.56861 115.436C8.74359 115.64 9.09354 115.654 11.1787 115.581C12.5056 115.523 13.8616 115.465 14.1824 115.451C14.8386 115.407 15.4948 115.669 15.6989 116.061C15.7864 116.221 15.8155 117.574 15.7864 119.29C15.7718 120.933 15.7864 122.343 15.8155 122.445C15.8739 122.59 16.5592 122.634 18.7318 122.634C22.7417 122.634 22.8729 122.707 22.8438 125.295C22.8438 126.109 22.8438 127.098 22.8583 127.505C22.8729 127.898 22.8292 128.683 22.7854 129.221C22.6979 130.036 22.6396 130.195 22.4646 130.123C22.3334 130.079 21.8376 130.123 21.3419 130.21C20.2483 130.414 16.8071 130.414 16.0343 130.21C15.1885 129.977 15.1302 129.759 15.2177 126.531C15.2615 124.99 15.3052 123.565 15.3198 123.361C15.3489 123.012 15.3198 122.998 14.6199 123.07C13.6575 123.172 11.7036 123.114 10.1726 122.954C9.16645 122.838 8.8894 122.852 8.71443 123.027C8.49571 123.23 8.48113 123.666 8.56861 130.632C8.58319 131.795 8.58319 134.078 8.55403 135.721C8.53945 137.364 8.52487 141.218 8.52487 144.301C8.53945 147.383 8.53945 151.906 8.51029 154.363C8.49571 157.882 8.52487 158.856 8.67068 158.9C8.8894 158.987 14.4012 158.856 15.1011 158.755L15.5968 158.682L15.4948 157.417C15.2906 155.003 15.2906 154.668 15.276 143.181C15.276 137.641 15.276 137.626 15.5968 137.321C15.903 137.044 16.0343 137.03 18.5568 137.103C21.9689 137.204 22.173 137.204 22.3917 136.972C22.5376 136.826 22.5813 136.39 22.5521 135.343C22.4501 131.402 22.5813 130.297 23.1646 130.152C23.3249 130.108 24.8268 130.108 26.4891 130.152C28.7784 130.225 29.5512 130.195 29.6241 130.065C29.697 129.963 29.7262 128.829 29.7116 127.534C29.6241 117.021 29.5658 112.382 29.5074 110.623C29.4345 108.791 29.4491 108.544 29.6824 108.34C29.9011 108.151 30.4115 108.122 33.3132 108.136C36.2732 108.165 36.7252 108.195 36.9439 108.413C37.2356 108.689 37.2793 109.823 37.1335 113.109C37.0752 114.229 37.0897 115.247 37.1627 115.378C37.2647 115.581 38.1396 115.611 46.1448 115.567C51.0149 115.538 55.506 115.48 56.133 115.436C57.4307 115.334 58.291 115.451 58.291 115.741C58.291 115.858 58.3494 115.945 58.4223 115.945C58.6847 115.945 58.7868 117.225 58.7431 119.9C58.7139 122.416 58.7285 122.605 58.9764 122.678C59.1222 122.721 60.6095 122.75 62.2863 122.75L65.3338 122.736L65.6255 123.085C65.8879 123.419 65.9025 123.608 65.8296 126.749C65.7421 130.53 65.6838 130.355 67.0399 130.21C67.4773 130.166 68.9792 130.152 70.3644 130.195C72.3912 130.254 72.9161 130.312 73.0182 130.486C73.1057 130.603 73.1494 131.591 73.1349 132.668C73.1203 133.744 73.1494 135.052 73.2078 135.576C73.2515 136.099 73.2661 136.666 73.2223 136.826C73.1203 137.248 72.537 137.481 71.8809 137.393C71.5892 137.35 70.1894 137.292 68.775 137.263C67.3606 137.248 66.1504 137.175 66.0629 137.132C65.8296 136.986 65.5671 137.364 65.7275 137.612C65.8004 137.728 65.8733 139.793 65.8879 142.192C65.9171 147.107 65.9317 146.714 65.8296 149.492C65.7859 150.641 65.815 151.6 65.8879 151.644C66.0483 151.76 72.0996 151.847 72.6391 151.746L73.0474 151.673L72.9453 148.299C72.8724 145.784 72.887 144.839 73.0182 144.591L73.1932 144.271L76.5615 144.344C79.5798 144.402 79.9444 144.446 80.1193 144.679C80.2506 144.853 80.3089 145.449 80.3235 146.467C80.3235 147.311 80.3381 151.978 80.3526 156.821L80.3818 165.647L83.6189 165.705C86.4476 165.749 86.8851 165.793 87.133 166.011C87.5412 166.374 87.6579 168.032 87.4538 170.518C87.3225 172.176 87.3225 172.583 87.4829 172.831C87.6725 173.121 87.8037 173.121 91.172 173.092C95.6922 173.049 95.9255 173.049 99.0897 173.121C100.562 173.165 101.787 173.136 101.831 173.063C101.962 172.86 101.918 165.938 101.787 165.807C101.729 165.749 99.3376 165.763 96.4942 165.851C91.0991 166.025 88.0953 165.938 87.6433 165.604C87.41 165.429 87.3808 165.109 87.3517 162.201C87.3225 159.932 87.3517 158.973 87.4683 158.9C87.5704 158.842 89.8743 158.827 92.6156 158.842C97.8648 158.9 101.233 158.871 101.612 158.755C101.816 158.696 101.831 158.26 101.831 155.206C101.816 152.996 101.758 151.717 101.671 151.702C101.598 151.687 101.481 151.687 101.437 151.687C101.379 151.702 99.95 151.731 98.2585 151.775C96.5671 151.818 95.1235 151.877 95.0652 151.92C94.9923 151.964 94.8028 151.847 94.6278 151.673C94.2778 151.309 94.2778 151.208 94.3799 147.412C94.4091 146.045 94.5111 144.751 94.584 144.548L94.7444 144.155H97.9377C99.7021 144.155 101.306 144.213 101.496 144.286C101.7 144.373 101.904 144.577 101.962 144.751C102.093 145.144 102.093 147.311 101.962 149.637C101.875 151.266 101.889 151.411 102.137 151.469C102.283 151.513 103.843 151.557 105.608 151.557C107.634 151.571 108.859 151.629 108.961 151.731C109.049 151.833 109.092 153.04 109.063 155.279C109.02 157.824 109.063 158.696 109.195 158.769C109.399 158.9 110.274 158.885 113.452 158.696C114.706 158.624 115.829 158.595 115.946 158.638C116.383 158.813 116.485 159.423 116.398 161.445C116.223 165.095 116.223 165.313 116.354 165.574C116.471 165.793 116.602 165.822 117.025 165.763C117.316 165.72 118.818 165.647 120.349 165.604C122.843 165.531 123.163 165.545 123.338 165.763C123.499 165.967 123.543 166.709 123.543 169.326C123.543 172.074 123.586 172.685 123.761 172.831C123.936 172.976 124.767 173.005 127.407 172.947C130.731 172.874 130.833 172.86 130.804 172.583C130.702 171.696 130.629 168.119 130.615 164.295C130.6 161.895 130.556 159.671 130.498 159.365L130.396 158.784L129.375 158.827C128.806 158.842 127.698 158.915 126.896 158.987C125.015 159.162 123.82 159.016 123.426 158.536C123.178 158.231 123.163 158.057 123.251 157.097C123.295 156.501 123.338 150.771 123.338 144.373C123.338 137.975 123.382 132.159 123.441 131.461C123.543 130.341 123.528 130.152 123.309 130.036C123.163 129.963 122.114 129.977 120.758 130.05C118.906 130.166 109.092 130.21 102.925 130.137L101.846 130.123L101.875 132.449C101.904 133.729 101.962 135.212 102.021 135.765C102.123 136.695 102.108 136.754 101.758 137.074C101.394 137.379 101.291 137.393 98.069 137.393C94.934 137.393 94.7444 137.379 94.5257 137.103C94.3216 136.855 94.307 136.492 94.3799 134.631C94.5403 131.126 94.482 123.187 94.307 123.012C94.2049 122.91 94.0737 122.91 93.8841 123.027C93.68 123.158 93.3592 123.172 92.7468 123.07C92.2802 122.998 91.4782 122.939 90.9533 122.954C90.4283 122.968 89.466 122.954 88.8098 122.925C88.0808 122.896 87.5412 122.925 87.4246 123.027C87.2788 123.158 87.2496 123.696 87.3371 125.717C87.3808 127.098 87.4392 130.952 87.4538 134.267C87.4683 137.582 87.5267 141.218 87.585 142.337C87.6579 143.675 87.6287 144.446 87.5412 144.577C87.41 144.737 87.0309 144.751 85.4124 144.664C84.3333 144.591 82.8752 144.562 82.1899 144.577C81.038 144.606 80.8921 144.577 80.5276 144.257L80.1047 143.908L80.0756 139.051C80.0318 133.991 80.0318 129.105 80.061 125.251L80.0902 122.998L77.9759 122.983C76.8094 122.968 75.395 123.041 74.8117 123.114C72.8287 123.405 72.712 123.143 72.7266 118.853C72.7412 117.268 72.712 115.887 72.6537 115.8C72.5954 115.712 72.4495 115.683 72.3037 115.727C72.1725 115.785 71.6476 115.858 71.1226 115.887C70.5977 115.916 69.9999 115.974 69.7811 116.018C69.577 116.047 69.0521 116.018 68.6146 115.96C68.1918 115.887 67.4481 115.887 66.9815 115.945C66.2233 116.032 66.0775 116.003 65.7859 115.727C65.4359 115.407 65.4359 115.378 65.4359 112.063C65.4359 109.067 65.4651 108.689 65.6838 108.485C66.0483 108.18 72.2454 107.976 72.5808 108.267C73.164 108.776 73.2078 109.052 73.1494 112.295L73.0911 115.436L73.7473 115.523C74.1118 115.581 75.6429 115.64 77.1593 115.669C79.4048 115.698 79.9298 115.669 80.0173 115.494C80.0756 115.378 80.0902 113.764 80.0318 111.888C79.9444 108.689 79.9589 108.485 80.2214 108.354C80.3672 108.267 81.8399 108.224 83.7355 108.224C86.4185 108.238 87.0017 108.209 87.0601 108.035C87.1038 107.918 87.1621 106.464 87.1767 104.792L87.2059 101.767H73.5869C66.0921 101.767 59.6763 101.709 59.3117 101.651L58.641 101.52L58.6847 103.687C58.6993 104.865 58.7576 106.406 58.8014 107.104L58.8889 108.369L58.3348 108.616C57.8682 108.805 57.3141 108.834 54.9373 108.791C51.7878 108.718 51.6274 108.674 51.2482 107.816C51.0587 107.395 51.0149 106.813 51.0587 104.748C51.0878 102.247 51.1899 101.665 51.6419 101.375C51.7294 101.316 53.275 101.316 55.0831 101.36L58.3639 101.447V98.0156C58.3639 95.2673 58.3202 94.5548 58.1744 94.4966C58.0577 94.453 57.9119 94.453 57.839 94.4966C57.6057 94.6566 52.2544 94.7002 51.7878 94.5548C51.0587 94.3367 50.9712 93.9586 51.0004 90.8613C51.0149 89.349 51.0295 87.9385 51.0441 87.7349L51.0733 87.3714L47.9529 87.4005L44.8179 87.4296L44.3221 87.066L43.8409 86.688L43.8701 83.5034C43.8847 81.7439 43.8555 80.2607 43.7972 80.2026C43.7388 80.1444 40.983 80.0862 37.6876 80.0717C30.9218 80.0426 30.4406 80.0135 29.9303 79.6791C29.5803 79.4464 29.5658 79.3737 29.5366 77.8032C29.522 76.9162 29.4929 75.782 29.4783 75.3021C29.4637 74.197 29.6241 72.9319 29.8136 72.7429C29.9011 72.6556 30.951 72.612 32.4237 72.6265C33.7798 72.6411 36.6669 72.6411 38.8541 72.6265C42.7619 72.5975 43.8409 72.6993 44.1034 73.0919C44.1617 73.1791 44.22 74.6478 44.22 76.3491C44.22 78.254 44.2784 79.49 44.3658 79.5773C44.4533 79.6645 45.7219 79.7372 47.6029 79.7372C50.5921 79.7518 50.6796 79.7663 50.9858 80.0862C51.2774 80.3916 51.292 80.6243 51.3795 83.6779C51.4378 85.4665 51.5107 86.9788 51.569 87.0224C51.6128 87.066 52.371 87.066 53.2459 87.0224C54.1208 86.9642 55.1706 86.9642 55.5789 87.0224C55.9872 87.0806 56.7308 87.1387 57.2266 87.1387C58.6264 87.1533 58.6264 87.1533 58.5535 91.1812L58.5098 94.4966L61.8635 94.453C63.7153 94.4239 65.3047 94.3512 65.4213 94.2785C65.5963 94.1913 65.6255 93.566 65.6109 90.7741C65.6109 88.8982 65.5963 87.3278 65.5963 87.2842C65.5817 87.1678 64.9839 86.9642 64.7797 87.0079C64.7068 87.0224 63.5257 87.066 62.1551 87.0951C59.7492 87.1387 58.6993 87.0224 58.4952 86.688C58.4369 86.6007 58.3931 85.1175 58.4077 83.3871C58.4077 81.6567 58.3639 80.1444 58.3056 80.0426C58.1598 79.8245 58.291 79.8245 54.8207 79.9554C50.942 80.1008 51.0295 80.2026 51.0587 76.0583L51.0733 73.1791L51.4378 72.9028C51.7878 72.6265 51.9919 72.6265 55.0977 72.6993L58.3931 72.7865L58.3785 69.3838C58.3639 67.5226 58.3056 65.9085 58.2327 65.7921C58.1306 65.6322 57.4016 65.6176 53.9312 65.7049C48.8277 65.8358 49.236 65.8358 45.6053 65.8067C43.9576 65.7921 42.3828 65.7921 42.1057 65.7921C41.8287 65.8067 40.1227 65.8067 38.3146 65.7921C36.5065 65.7921 33.1965 65.7776 30.951 65.7776C28.7055 65.7631 26.6932 65.734 26.4745 65.7049C26.2558 65.6758 25.2788 65.6322 24.2873 65.6031L22.4938 65.5595L22.523 65.923C22.6105 67.0427 22.7271 71.6232 22.7563 75.3312C22.7709 77.6578 22.8146 79.6064 22.8583 79.6354C22.9021 79.6791 24.3748 79.7518 26.1391 79.7954L29.347 79.8972L29.6824 80.2898C30.0032 80.6679 30.0032 80.7406 29.9303 83.2998C29.8866 84.7394 29.8136 86.0918 29.7845 86.3099C29.6824 86.9933 29.974 87.0806 32.2487 87.037C33.3715 87.0224 34.7713 86.9642 35.3546 86.9206C36.3315 86.8334 36.419 86.8479 36.769 87.1969L37.1335 87.5604L37.1481 90.5269C37.1481 92.1409 37.1772 93.6096 37.2064 93.7696C37.2501 93.9295 37.2793 94.1186 37.2793 94.1767C37.2939 94.2494 38.6499 94.2785 40.3268 94.264C42.1932 94.2494 43.491 94.2931 43.7243 94.3948C44.1909 94.5839 44.4242 95.3691 44.4387 96.8232C44.4387 97.3758 44.4533 98.0738 44.4679 98.3501C44.5262 99.906 44.3804 101.549 44.1617 101.753C43.9867 101.913 43.3743 101.971 41.5225 101.985C38.2854 102.029 37.5126 101.956 36.9877 101.564C36.5794 101.258 36.5648 101.229 36.5648 99.8914C36.5648 99.1498 36.594 98.51 36.6377 98.4664C36.6815 98.4228 36.7398 97.5939 36.7544 96.6197C36.7835 95.1365 36.7544 94.8165 36.5648 94.7293C36.3024 94.5984 30.5865 94.6275 26.5328 94.7729C24.4477 94.8456 23.4416 94.8311 23.0771 94.7148C22.2168 94.4385 22.173 94.0168 22.3334 86.8625C22.3626 85.2193 22.3334 83.2271 22.2459 82.4419C22.1439 81.3513 22.1439 80.9151 22.2751 80.6679C22.5959 80.0717 22.3917 80.0135 20.4087 80.1298C18.5131 80.2316 18.3381 80.2316 16.7779 80.188C15.6989 80.1735 15.2177 79.7954 15.0719 78.9084C14.9407 78.1231 15.2031 66.7373 15.3635 66.1993C15.3927 66.0684 15.3489 65.8939 15.2469 65.8067C14.9552 65.574 8.43738 65.5013 8.24782 65.734ZM116.252 144.635C116.383 144.969 116.441 146.002 116.456 148.256L116.485 151.411L116.121 151.644C115.814 151.847 115.377 151.862 112.752 151.789C110.463 151.717 109.647 151.644 109.399 151.484C109.092 151.28 109.078 151.179 108.976 147.965C108.918 146.147 108.918 144.548 108.961 144.417C109.049 144.199 109.399 144.17 112.563 144.17H116.048L116.252 144.635Z" fill="black"/>
<path d="M73.0037 87.0664C72.8141 89.6693 72.785 94.1044 72.9599 94.2789C73.1495 94.4679 75.92 94.497 82.4087 94.3661C86.7685 94.2643 86.7685 94.2643 87.1039 94.5842C87.4538 94.9041 87.4538 94.9478 87.4538 98.0741C87.4538 99.8191 87.5121 101.273 87.5705 101.317C87.6434 101.36 89.2181 101.404 91.0846 101.433C94.0592 101.462 94.4966 101.491 94.5987 101.695C94.6716 101.826 94.7736 103.105 94.832 104.545C94.934 107.177 94.8174 108.238 94.4091 108.486C94.2341 108.587 89.014 108.573 88.3287 108.471C88.1245 108.428 87.8038 108.355 87.6142 108.297C87.2788 108.195 87.2642 108.209 87.3809 108.762C87.5267 109.46 87.5267 109.329 87.3955 112.659C87.2934 114.913 87.308 115.422 87.4684 115.524C87.585 115.596 88.9848 115.611 90.6034 115.553C92.2073 115.509 93.6946 115.509 93.9133 115.567C94.6278 115.742 94.8174 116.367 94.7882 118.461C94.7882 119.493 94.7299 120.831 94.6862 121.457C94.5841 122.693 94.657 122.867 95.3277 122.94C95.5319 122.954 95.8089 122.925 95.9547 122.852C96.1005 122.794 97.34 122.809 98.7106 122.867C101.729 123.027 101.729 123.012 101.758 121.689C101.773 121.209 101.729 117.254 101.685 112.892C101.569 103.556 101.583 95.6457 101.685 95.2095C101.802 94.7442 101.51 94.2789 101.087 94.2789C100.898 94.2789 100.708 94.337 100.665 94.4097C100.548 94.5988 88.2558 94.4824 87.9058 94.2789C87.2934 93.9589 87.2351 93.639 87.2497 90.3091C87.2497 88.5787 87.2205 87.1536 87.1768 87.1536C87.133 87.1536 84.1001 87.1245 80.4548 87.0955C76.8094 87.0664 73.6453 87.0228 73.4265 86.9791C73.1787 86.9355 73.0183 86.9646 73.0037 87.0664Z" fill="black"/>
<path d="M114.224 115.465C114.209 115.48 113.072 115.509 111.687 115.523C109.529 115.553 109.149 115.582 109.047 115.785C108.989 115.916 108.945 117.559 108.945 119.435L108.96 122.852H112.532H116.105L116.178 119.29C116.221 117.327 116.207 115.669 116.149 115.596C116.076 115.494 114.326 115.378 114.224 115.465Z" fill="black"/>
<path d="M123.586 115.582C123.44 115.683 123.396 116.294 123.367 117.908C123.353 119.101 123.338 120.642 123.324 121.311C123.309 122.053 123.367 122.591 123.469 122.692C123.571 122.794 124.65 122.852 126.925 122.852C130.075 122.852 130.22 122.838 130.41 122.561C130.556 122.343 130.614 121.427 130.614 118.941C130.629 117.123 130.6 115.596 130.556 115.553C130.41 115.393 123.79 115.422 123.586 115.582Z" fill="black"/>
<path d="M44.4966 122.911C44.5549 122.998 44.5258 123.071 44.4383 123.071C44.3071 123.071 44.2779 124.83 44.3071 130.051C44.3362 134.689 44.3071 137.074 44.205 137.176C44.0009 137.379 42.4552 137.408 39.6702 137.278C37.3518 137.161 37.308 137.161 37.1476 137.467C37.0601 137.641 37.0164 137.932 37.0601 138.106C37.1039 138.281 37.1476 139.721 37.1622 141.291C37.1768 142.978 37.2351 144.199 37.3226 144.243C37.3955 144.301 38.4599 144.316 39.6702 144.301C43.855 144.228 44.0009 144.243 44.2487 144.476C44.4966 144.723 44.5404 146.599 44.3654 149.798C44.2925 150.99 44.3216 151.426 44.4529 151.514C44.5549 151.572 46.1006 151.615 47.8941 151.601L51.1603 151.572L51.3644 152.052C51.5248 152.444 51.5394 153.128 51.4519 155.658C51.379 157.374 51.3499 158.799 51.3936 158.842C51.4373 158.886 53.085 158.915 55.0681 158.915H58.6843L58.6405 155.629C58.626 153.2 58.5676 152.255 58.4218 152.037C58.2323 151.732 58.1448 151.732 55.1264 151.761C51.1166 151.804 51.3936 152.008 51.3061 148.838C51.2186 145.639 51.2478 144.752 51.4665 144.49C51.6269 144.301 52.0789 144.287 55.1118 144.374L58.5676 144.476L58.6551 144.112C58.7134 143.908 58.7134 143.676 58.6697 143.589C58.6114 143.516 58.5822 142.12 58.5676 140.491C58.5676 138.863 58.5239 137.467 58.4656 137.365C58.3927 137.249 57.4886 137.234 55.0389 137.292C51.7436 137.394 51.7144 137.394 51.4082 137.074C51.1311 136.769 51.1166 136.623 51.1603 133.541C51.204 130.996 51.2624 130.298 51.4228 130.211C51.5394 130.138 53.1142 130.109 54.9223 130.138C56.7304 130.167 58.2906 130.152 58.3927 130.08C58.5093 130.007 58.5385 129.105 58.4801 126.59L58.3927 123.216L57.7219 123.187C57.3574 123.187 55.2139 123.158 52.9684 123.143C48.7106 123.1 46.363 123.013 45.1236 122.853C44.6133 122.78 44.4237 122.794 44.4966 122.911Z" fill="black"/>
<path d="M22.7125 144.577C22.6396 144.723 22.6104 144.883 22.6687 144.926C22.7125 144.984 22.7416 146.453 22.727 148.213C22.6979 151.848 22.6396 151.673 23.9519 151.63C27.6701 151.514 29.6094 151.557 29.8282 151.775C30.0177 151.964 30.0469 152.546 30.0615 155.454L30.0761 158.915L30.5864 158.886C31.1842 158.871 43.5055 158.828 43.6659 158.857C43.7242 158.871 43.9138 158.828 44.0887 158.77C44.3658 158.682 44.3949 158.595 44.3366 157.635C44.3075 157.054 44.2054 156.152 44.1179 155.614C44.0012 154.902 44.0012 154.276 44.1033 153.36C44.2929 151.848 44.2491 151.659 43.7242 151.79C43.5201 151.848 42.0619 151.906 40.5017 151.935C37.4834 151.979 37.3084 151.95 36.9147 151.252C36.8418 151.106 36.8126 149.652 36.8564 147.762C36.9001 145.973 36.871 144.476 36.8126 144.432C36.7543 144.388 36.3898 144.388 36.0107 144.461C35.6315 144.519 34.4942 144.548 33.4589 144.519C32.4382 144.505 31.5779 144.519 31.5342 144.577C31.505 144.635 31.2571 144.665 30.9947 144.635C30.7322 144.606 29.0116 144.548 27.1598 144.519C25.3225 144.476 23.5873 144.417 23.3395 144.388C22.9749 144.33 22.8291 144.388 22.7125 144.577Z" fill="black"/>
<path d="M8.5404 165.924C8.36542 166.113 8.33626 166.258 8.42375 166.403C8.51124 166.534 8.55498 176.277 8.5404 191.371C8.51124 209.707 8.55498 216.178 8.67163 216.295C8.80286 216.425 9.26947 216.425 10.4214 216.324C11.2817 216.236 13.9355 216.207 16.2977 216.236C18.6599 216.265 28.998 216.324 39.2633 216.353C49.5286 216.382 58.0587 216.425 58.2191 216.455C58.4961 216.498 58.5253 216.382 58.6274 214.971C58.6857 214.128 58.6857 212.107 58.6128 210.464C58.5399 208.82 58.5107 206.988 58.569 206.392C58.6274 205.796 58.6128 204.443 58.5544 203.411C58.4961 202.364 58.467 200.997 58.5107 200.357C58.5399 199.717 58.569 197.464 58.569 195.341C58.5253 181.439 58.5544 168.192 58.6419 167.261C58.8023 165.56 59.0211 165.633 55.0112 165.894C52.5761 166.04 10.0714 165.924 9.29863 165.764C8.89035 165.676 8.72996 165.705 8.5404 165.924ZM21.6928 172.962C26.9858 172.991 32.5413 172.991 41.6692 172.962C49.6744 172.932 50.9721 172.962 51.22 173.151C51.4971 173.354 51.5117 173.558 51.5554 176.83C51.57 178.734 51.5991 180.479 51.6137 180.727C51.6137 180.959 51.6137 183.678 51.5991 186.761C51.5846 189.844 51.5991 196.068 51.6137 200.605C51.6429 207.09 51.6137 208.893 51.4679 209.038C51.3658 209.14 50.943 209.227 50.5201 209.257C49.062 209.315 48.3767 209.417 48.1725 209.576C48.0121 209.707 47.9538 209.707 47.9101 209.562C47.8663 209.431 46.6706 209.373 42.7483 209.329C39.9486 209.286 37.2365 209.271 36.7116 209.271C36.1867 209.271 34.4661 209.286 32.8913 209.286C31.1269 209.3 29.9896 209.358 29.9312 209.446C29.8875 209.533 29.6979 209.562 29.523 209.518C28.9397 209.387 24.4049 209.344 23.4134 209.46C22.7135 209.547 22.2323 209.518 21.6636 209.373C21.2408 209.271 20.8471 209.227 20.7742 209.286C20.7158 209.344 19.5785 209.373 18.2224 209.344C15.8457 209.315 15.7873 209.3 15.4811 208.951C15.1749 208.617 15.1603 208.486 15.2332 206.828C15.3061 205.418 15.277 205.025 15.1166 204.923C14.9708 204.836 14.9562 204.763 15.0728 204.676C15.1749 204.618 15.2332 203.367 15.2624 201.012C15.2916 196.518 15.3353 183.039 15.3061 180.145C15.3061 178.938 15.3061 177.368 15.3207 176.655C15.3353 175.928 15.3207 175.085 15.2916 174.765C15.2478 174.299 15.4228 173.514 15.6707 173.107C15.7728 172.932 16.8226 172.831 17.8287 172.874C18.4703 172.918 20.2055 172.947 21.6928 172.962Z" fill="black"/>
<path d="M22.9597 180.363C22.7264 180.552 22.6972 180.683 22.7847 181.032C22.8576 181.265 22.9014 181.483 22.8868 181.527C22.8576 181.716 22.8285 190.964 22.8576 192.941C22.8576 194.134 22.8285 196.533 22.7701 198.264C22.6827 200.866 22.7118 201.434 22.8722 201.535C22.9889 201.608 26.8967 201.681 31.6794 201.681C36.4183 201.695 41.0114 201.739 41.9155 201.797L43.534 201.899L44.0152 201.463C44.3797 201.128 44.4526 200.983 44.3214 200.837C44.161 200.634 44.0443 196.882 44.1464 195.414C44.1756 195.006 44.1902 193.698 44.1756 192.505C44.0881 186.791 44.1464 181.948 44.2776 181.687C44.3797 181.512 44.3943 181.192 44.3214 180.843C44.2193 180.378 44.1464 180.291 43.8402 180.32C43.6507 180.334 39.5533 180.378 34.7414 180.407C28.5444 180.451 25.5989 180.421 24.622 180.291C23.4117 180.145 23.2368 180.145 22.9597 180.363Z" fill="black"/>
<path d="M194.83 179.563C194.684 179.68 194.626 180.552 194.582 183.17L194.523 186.63L194.859 186.863C195.048 186.979 195.253 187.038 195.325 186.994C195.515 186.878 200.633 186.863 201.085 186.979C201.858 187.183 201.887 187.416 201.829 194.163C201.8 197.551 201.741 200.357 201.697 200.401C201.654 200.445 201.727 200.605 201.872 200.75C202.091 200.983 202.383 201.012 205.27 201.012C207.661 200.997 208.507 200.954 208.697 200.808C208.988 200.605 208.974 201.462 208.871 189.597L208.842 186.689L208.259 186.703C203.112 186.819 202.193 186.805 201.96 186.572C201.741 186.369 201.727 185.991 201.77 183.824C201.858 180.203 201.843 179.796 201.639 179.592C201.42 179.374 195.121 179.345 194.83 179.563Z" fill="black"/>
<path d="M209.163 208.079C208.959 208.282 204.206 208.37 198.082 208.253C195.472 208.21 195.02 208.282 195.282 208.719C195.399 208.908 195.399 212.165 195.282 213.968C195.224 214.986 195.253 215.262 195.428 215.408C195.617 215.553 197.09 215.597 202.325 215.568C205.985 215.553 209.134 215.51 209.324 215.451C209.499 215.408 209.645 215.262 209.659 215.131C209.703 214.419 209.615 208.21 209.557 208.108C209.47 207.977 209.295 207.963 209.163 208.079ZM203.477 208.661C203.433 208.704 203.302 208.719 203.2 208.675C203.083 208.631 203.127 208.588 203.287 208.588C203.448 208.573 203.535 208.617 203.477 208.661Z" fill="black"/>
<path d="M79.9882 208.951C79.9007 209.024 78.9966 209.082 74.9576 209.198C73.7765 209.242 72.9308 209.329 72.8142 209.431C72.6538 209.562 72.5954 209.562 72.5517 209.417C72.5079 209.286 71.808 209.228 69.7958 209.213C68.3231 209.198 66.9233 209.126 66.69 209.068C65.9463 208.893 65.9026 209.097 65.9026 212.863C65.888 215.262 65.9463 216.309 66.063 216.382C66.1505 216.426 69.2417 216.469 72.9308 216.44C78.1947 216.411 79.7111 216.367 79.9444 216.222C80.1632 216.077 80.2361 215.858 80.2506 215.393C80.2506 215.044 80.2798 213.445 80.309 211.86C80.3527 209.184 80.2944 208.646 79.9882 208.951Z" fill="black"/>
</svg>
