<svg width="64" height="64" viewBox="0 0 64 64" fill="none" xmlns="http://www.w3.org/2000/svg">
<mask id="mask0_467_310" style="mask-type:luminance" maskUnits="userSpaceOnUse" x="0" y="0" width="64" height="64">
<path d="M64 0H0V64H64V0Z" fill="white"/>
</mask>
<g mask="url(#mask0_467_310)">
<g filter="url(#filter0_d_467_310)">
<mask id="mask1_467_310" style="mask-type:alpha" maskUnits="userSpaceOnUse" x="7" y="-3" width="59" height="55">
<path d="M29.9219 6.67131L9.06682 19.122L7.19922 16.9432L9.06682 8.22765L34.2795 -2.66675L61.0485 7.60512L65.7176 44.6461L54.8232 51.1826V45.8911V19.122L52.9557 20.0558L51.7107 19.122L29.9219 6.67131Z" fill="#D9D9D9"/>
</mask>
<g mask="url(#mask1_467_310)">
<path d="M13.4258 20.8586V38.0829L28.9893 47.9735V30.8301L13.4258 20.8586Z" fill="white"/>
<path d="M38.9507 47.9735L54.5139 38.0829V20.8586L38.9507 30.8301V47.9735Z" fill="white"/>
<path d="M34.2513 55.7273L10.0308 40.6095V14.4675L34.2513 29.7084V55.7273Z" stroke="white" stroke-width="1.92593"/>
<path d="M57.2862 39.5683L34.9331 53.683V29.3856L57.2862 15.1562V39.5683Z" stroke="white" stroke-width="1.92593"/>
<path d="M12.9072 15.2142L34.4339 1.77515L55.9608 15.2142L34.4339 28.6533L12.9072 15.2142Z" stroke="white" stroke-width="1.92593"/>
</g>
<path d="M9.69141 27.3943V44.6186L25.2548 54.5095V37.3658L9.69141 27.3943Z" fill="white"/>
<path d="M35.2163 54.5097L50.7795 44.6188V27.3945L35.2163 37.366V54.5097Z" fill="white"/>
<path d="M45.7972 21.6331L30.2337 11.804L14.6704 21.6331L30.2337 31.4623L45.7972 21.6331Z" fill="white"/>
<path d="M30.5169 62.2635L6.29639 47.1459V21.0039L30.5169 36.2446V62.2635Z" stroke="white" stroke-width="1.92593"/>
<path d="M53.5503 46.1048L31.1973 60.2194V35.9221L53.5503 21.6926V46.1048Z" stroke="white" stroke-width="1.92593"/>
<path d="M9.30957 21.6881L30.8363 8.24902L52.363 21.6881L30.8363 35.1271L9.30957 21.6881Z" stroke="white" stroke-width="1.92593"/>
</g>
</g>
<defs>
<filter id="filter0_d_467_310" x="5.3335" y="0.639893" width="64.7674" height="75.2117" filterUnits="userSpaceOnUse" color-interpolation-filters="sRGB">
<feFlood flood-opacity="0" result="BackgroundImageFix"/>
<feColorMatrix in="SourceAlpha" type="matrix" values="0 0 0 0 0 0 0 0 0 0 0 0 0 0 0 0 0 0 127 0" result="hardAlpha"/>
<feOffset dx="5.92592" dy="5.92592"/>
<feGaussianBlur stdDeviation="2.96296"/>
<feComposite in2="hardAlpha" operator="out"/>
<feColorMatrix type="matrix" values="0 0 0 0 0 0 0 0 0 0 0 0 0 0 0 0 0 0 0.25 0"/>
<feBlend mode="normal" in2="BackgroundImageFix" result="effect1_dropShadow_467_310"/>
<feBlend mode="normal" in="SourceGraphic" in2="effect1_dropShadow_467_310" result="shape"/>
</filter>
</defs>
</svg>
